NotoSansThaiUI-Regular.ufo
<glyph name="uni02BC" format="2">
  <advance width="175"/>
  <unicode hex="02BC"/>
  <outline>
    <contour>
      <point x="149" y="714" type="line"/>
      <point x="58" y="714" type="line"/>
      <point x="49" y="644"/>
      <point x="29" y="544"/>
      <point x="11" y="469" type="curve"/>
      <point x="75" y="469" type="line"/>
      <point x="105" y="540"/>
      <point x="139" y="633"/>
      <point x="156" y="703" type="curve"/>
    </contour>
  </outline>
</glyph>
<glyph name="tildecomb" format="2">
  <unicode hex="0303"/>
  <anchor x="-78" y="511" name="_top"/>
  <outline>
    <contour>
      <point x="-120" y="735" type="curve"/>
      <point x="-169" y="735" type="line"/>
      <point x="-178" y="696"/>
      <point x="-192" y="677"/>
      <point x="-220" y="677" type="curve" smooth="yes"/>
      <point x="-260" y="677"/>
      <point x="-308" y="734"/>
      <point x="-363" y="734" type="curve" smooth="yes"/>
      <point x="-423" y="734"/>
      <point x="-460" y="685"/>
      <point x="-468" y="606" type="curve"/>
      <point x="-418" y="606" type="line"/>
      <point x="-410" y="645"/>
      <point x="-396" y="664"/>
      <point x="-367" y="664" type="curve" smooth="yes"/>
      <point x="-326" y="664"/>
      <point x="-277" y="607"/>
      <point x="-224" y="607" type="curve" smooth="yes"/>
      <point x="-165" y="607"/>
      <point x="-128" y="657"/>
    </contour>
  </outline>
</glyph>
<glyph name="koKai-thai" format="2">
  <advance width="600"/>
  <unicode hex="0E01"/>
  <note>
uni0E01
</note>
  <anchor x="520" y="0" name="bottom"/>
  <anchor x="509" y="506" name="top"/>
  <outline>
    <contour>
      <point x="76" y="0" type="line"/>
      <point x="165" y="0" type="line"/>
      <point x="165" y="178" type="line" smooth="yes"/>
      <point x="165" y="244"/>
      <point x="207" y="273"/>
      <point x="257" y="274" type="curve"/>
      <point x="265" y="320" type="line"/>
      <point x="157" y="370" type="line"/>
      <point x="157" y="418"/>
      <point x="208" y="453"/>
      <point x="290" y="453" type="curve" smooth="yes"/>
      <point x="368" y="453"/>
      <point x="430" y="420"/>
      <point x="430" y="338" type="curve" smooth="yes"/>
      <point x="430" y="0" type="line"/>
      <point x="519" y="0" type="line"/>
      <point x="519" y="347" type="line" smooth="yes"/>
      <point x="519" y="473"/>
      <point x="413" y="527"/>
      <point x="291" y="527" type="curve" smooth="yes"/>
      <point x="150" y="527"/>
      <point x="66" y="454"/>
      <point x="66" y="375" type="curve" smooth="yes"/>
      <point x="66" y="344" type="line"/>
      <point x="176" y="305" type="line"/>
      <point x="175" y="302" type="line"/>
      <point x="117" y="288"/>
      <point x="76" y="257"/>
      <point x="76" y="177" type="curve" smooth="yes"/>
    </contour>
  </outline>
</glyph>
<glyph name="khoKhai-thai" format="2">
  <advance width="547"/>
  <unicode hex="0E02"/>
  <note>
uni0E02
</note>
  <anchor x="445" y="0" name="bottom"/>
  <anchor x="465" y="506" name="top"/>
  <outline>
    <contour>
      <point x="274" y="-10" type="curve" smooth="yes"/>
      <point x="400" y="-10"/>
      <point x="466" y="48"/>
      <point x="466" y="148" type="curve" smooth="yes"/>
      <point x="466" y="517" type="line"/>
      <point x="377" y="517" type="line"/>
      <point x="377" y="153" type="line" smooth="yes"/>
      <point x="377" y="92"/>
      <point x="341" y="63"/>
      <point x="274" y="63" type="curve" smooth="yes"/>
      <point x="217" y="63"/>
      <point x="166" y="84"/>
      <point x="166" y="169" type="curve" smooth="yes"/>
      <point x="166" y="224" type="line" smooth="yes"/>
      <point x="166" y="270"/>
      <point x="182" y="294"/>
      <point x="205" y="325" type="curve" smooth="yes"/>
      <point x="226" y="353"/>
      <point x="247" y="381"/>
      <point x="247" y="426" type="curve" smooth="yes"/>
      <point x="247" y="483"/>
      <point x="219" y="523"/>
      <point x="145" y="523" type="curve" smooth="yes"/>
      <point x="118" y="523"/>
      <point x="78" y="517"/>
      <point x="54" y="502" type="curve"/>
      <point x="74" y="439" type="line"/>
      <point x="91" y="447"/>
      <point x="110" y="452"/>
      <point x="126" y="452" type="curve" smooth="yes"/>
      <point x="147" y="452"/>
      <point x="163" y="442"/>
      <point x="163" y="416" type="curve" smooth="yes"/>
      <point x="163" y="386"/>
      <point x="144" y="368"/>
      <point x="121" y="340" type="curve" smooth="yes"/>
      <point x="100" y="314"/>
      <point x="77" y="280"/>
      <point x="77" y="219" type="curve" smooth="yes"/>
      <point x="77" y="163" type="line" smooth="yes"/>
      <point x="77" y="48"/>
      <point x="149" y="-10"/>
    </contour>
  </outline>
</glyph>
<glyph name="khoKhuat-thai" format="2">
  <advance width="549"/>
  <unicode hex="0E03"/>
  <anchor x="448" y="0" name="bottom"/>
  <anchor x="468" y="506" name="top"/>
  <outline>
    <contour>
      <point x="272" y="-10" type="curve" smooth="yes"/>
      <point x="399" y="-10"/>
      <point x="468" y="48"/>
      <point x="468" y="148" type="curve" smooth="yes"/>
      <point x="468" y="517" type="line"/>
      <point x="380" y="517" type="line"/>
      <point x="380" y="153" type="line" smooth="yes"/>
      <point x="380" y="92"/>
      <point x="341" y="63"/>
      <point x="272" y="63" type="curve" smooth="yes"/>
      <point x="218" y="63"/>
      <point x="167" y="83"/>
      <point x="167" y="170" type="curve" smooth="yes"/>
      <point x="167" y="221" type="line" smooth="yes"/>
      <point x="167" y="286"/>
      <point x="193" y="304"/>
      <point x="224" y="341" type="curve" smooth="yes"/>
      <point x="266" y="391"/>
      <point x="267" y="417"/>
      <point x="267" y="473" type="curve" smooth="yes"/>
      <point x="267" y="517" type="line"/>
      <point x="218" y="517" type="line"/>
      <point x="199" y="479" type="line"/>
      <point x="186" y="468"/>
      <point x="168" y="464"/>
      <point x="154" y="464" type="curve" smooth="yes"/>
      <point x="131" y="464"/>
      <point x="122" y="480"/>
      <point x="122" y="517" type="curve"/>
      <point x="44" y="517" type="line"/>
      <point x="44" y="496" type="line" smooth="yes"/>
      <point x="44" y="439"/>
      <point x="78" y="407"/>
      <point x="126" y="407" type="curve" smooth="yes"/>
      <point x="150" y="407"/>
      <point x="169" y="414"/>
      <point x="184" y="424" type="curve"/>
      <point x="187" y="422" type="line"/>
      <point x="185" y="403"/>
      <point x="168" y="386"/>
      <point x="147" y="365" type="curve" smooth="yes"/>
      <point x="111" y="329"/>
      <point x="78" y="294"/>
      <point x="78" y="221" type="curve" smooth="yes"/>
      <point x="78" y="164" type="line" smooth="yes"/>
      <point x="78" y="49"/>
      <point x="146" y="-10"/>
    </contour>
  </outline>
</glyph>
<glyph name="khoKhwai-thai" format="2">
  <advance width="614"/>
  <unicode hex="0E04"/>
  <note>
uni0E04
</note>
  <anchor x="533" y="0" name="bottom"/>
  <anchor x="522" y="506" name="top"/>
  <outline>
    <contour>
      <point x="81" y="0" type="line"/>
      <point x="170" y="0" type="line"/>
      <point x="170" y="97" type="line" smooth="yes"/>
      <point x="170" y="160"/>
      <point x="195" y="213"/>
      <point x="317" y="213" type="curve" smooth="yes"/>
      <point x="350" y="213" type="line"/>
      <point x="350" y="285" type="line"/>
      <point x="317" y="285" type="line" smooth="yes"/>
      <point x="240" y="285"/>
      <point x="202" y="274"/>
      <point x="173" y="225" type="curve"/>
      <point x="170" y="226" type="line"/>
      <point x="170" y="328" type="line" smooth="yes"/>
      <point x="170" y="411"/>
      <point x="216" y="453"/>
      <point x="306" y="453" type="curve" smooth="yes"/>
      <point x="397" y="453"/>
      <point x="444" y="411"/>
      <point x="444" y="328" type="curve" smooth="yes"/>
      <point x="444" y="0" type="line"/>
      <point x="533" y="0" type="line"/>
      <point x="533" y="328" type="line" smooth="yes"/>
      <point x="533" y="456"/>
      <point x="465" y="527"/>
      <point x="307" y="527" type="curve" smooth="yes"/>
      <point x="149" y="527"/>
      <point x="81" y="456"/>
      <point x="81" y="328" type="curve" smooth="yes"/>
    </contour>
  </outline>
</glyph>
<glyph name="khoKhon-thai" format="2">
  <advance width="621"/>
  <unicode hex="0E05"/>
  <anchor x="539" y="0" name="bottom"/>
  <anchor x="528" y="506" name="top"/>
  <outline>
    <contour>
      <point x="81" y="0" type="line"/>
      <point x="170" y="0" type="line"/>
      <point x="170" y="97" type="line" smooth="yes"/>
      <point x="170" y="160"/>
      <point x="195" y="213"/>
      <point x="318" y="213" type="curve" smooth="yes"/>
      <point x="351" y="213" type="line"/>
      <point x="351" y="285" type="line"/>
      <point x="318" y="285" type="line" smooth="yes"/>
      <point x="240" y="285"/>
      <point x="201" y="274"/>
      <point x="171" y="225" type="curve"/>
      <point x="168" y="226" type="line"/>
      <point x="168" y="391" type="line" smooth="yes"/>
      <point x="168" y="438"/>
      <point x="192" y="453"/>
      <point x="223" y="453" type="curve" smooth="yes"/>
      <point x="259" y="453"/>
      <point x="277" y="436"/>
      <point x="281" y="397" type="curve"/>
      <point x="337" y="397" type="line"/>
      <point x="341" y="436"/>
      <point x="358" y="453"/>
      <point x="393" y="453" type="curve" smooth="yes"/>
      <point x="426" y="453"/>
      <point x="451" y="438"/>
      <point x="451" y="391" type="curve" smooth="yes"/>
      <point x="451" y="0" type="line"/>
      <point x="540" y="0" type="line"/>
      <point x="540" y="396" type="line" smooth="yes"/>
      <point x="540" y="484"/>
      <point x="490" y="527"/>
      <point x="407" y="527" type="curve" smooth="yes"/>
      <point x="361" y="527"/>
      <point x="325" y="513"/>
      <point x="312" y="477" type="curve"/>
      <point x="308" y="477" type="line"/>
      <point x="296" y="513"/>
      <point x="260" y="527"/>
      <point x="213" y="527" type="curve" smooth="yes"/>
      <point x="131" y="527"/>
      <point x="81" y="484"/>
      <point x="81" y="396" type="curve" smooth="yes"/>
    </contour>
  </outline>
</glyph>
<glyph name="khoRakhang-thai" format="2">
  <advance width="598"/>
  <unicode hex="0E06"/>
  <anchor x="498" y="0" name="bottom"/>
  <anchor x="517" y="506" name="top"/>
  <outline>
    <contour>
      <point x="333" y="-9" type="curve" smooth="yes"/>
      <point x="447" y="-9"/>
      <point x="517" y="47"/>
      <point x="517" y="172" type="curve" smooth="yes"/>
      <point x="517" y="517" type="line"/>
      <point x="428" y="517" type="line"/>
      <point x="428" y="180" type="line" smooth="yes"/>
      <point x="428" y="104"/>
      <point x="389" y="66"/>
      <point x="311" y="66" type="curve" smooth="yes"/>
      <point x="218" y="66"/>
      <point x="162" y="121"/>
      <point x="162" y="210" type="curve" smooth="yes"/>
      <point x="162" y="219" type="line" smooth="yes"/>
      <point x="162" y="283"/>
      <point x="188" y="301"/>
      <point x="220" y="341" type="curve" smooth="yes"/>
      <point x="263" y="395"/>
      <point x="268" y="418"/>
      <point x="268" y="473" type="curve" smooth="yes"/>
      <point x="268" y="517" type="line"/>
      <point x="218" y="517" type="line"/>
      <point x="199" y="479" type="line"/>
      <point x="186" y="468"/>
      <point x="168" y="464"/>
      <point x="154" y="464" type="curve" smooth="yes"/>
      <point x="131" y="464"/>
      <point x="122" y="480"/>
      <point x="122" y="517" type="curve"/>
      <point x="44" y="517" type="line"/>
      <point x="44" y="496" type="line" smooth="yes"/>
      <point x="44" y="439"/>
      <point x="78" y="407"/>
      <point x="126" y="407" type="curve" smooth="yes"/>
      <point x="150" y="407"/>
      <point x="169" y="414"/>
      <point x="184" y="424" type="curve"/>
      <point x="187" y="422" type="line"/>
      <point x="185" y="405"/>
      <point x="173" y="393"/>
      <point x="144" y="365" type="curve" smooth="yes"/>
      <point x="104" y="327"/>
      <point x="74" y="290"/>
      <point x="74" y="217" type="curve" smooth="yes"/>
      <point x="74" y="0" type="line"/>
      <point x="147" y="0" type="line"/>
      <point x="152" y="82" type="line"/>
      <point x="156" y="82" type="line"/>
      <point x="179" y="25"/>
      <point x="242" y="-9"/>
    </contour>
  </outline>
</glyph>
<glyph name="ngoNgu-thai" format="2">
  <advance width="537"/>
  <unicode hex="0E07"/>
  <note>
uni0E07
</note>
  <anchor x="395" y="0" name="bottom"/>
  <anchor x="439" y="506" name="top"/>
  <outline>
    <contour>
      <point x="171" y="0" type="line"/>
      <point x="221" y="0" type="line" smooth="yes"/>
      <point x="307" y="0"/>
      <point x="360" y="23"/>
      <point x="399" y="59" type="curve" smooth="yes"/>
      <point x="447" y="104"/>
      <point x="483" y="183"/>
      <point x="483" y="281" type="curve" smooth="yes"/>
      <point x="483" y="359"/>
      <point x="461" y="425"/>
      <point x="415" y="468" type="curve" smooth="yes"/>
      <point x="377" y="503"/>
      <point x="324" y="522"/>
      <point x="258" y="522" type="curve" smooth="yes"/>
      <point x="238" y="522"/>
      <point x="213" y="520"/>
      <point x="185" y="513" type="curve"/>
      <point x="207" y="442" type="line"/>
      <point x="218" y="446"/>
      <point x="235" y="448"/>
      <point x="253" y="448" type="curve" smooth="yes"/>
      <point x="341" y="448"/>
      <point x="394" y="387"/>
      <point x="394" y="284" type="curve" smooth="yes"/>
      <point x="394" y="223"/>
      <point x="376" y="155"/>
      <point x="336" y="114" type="curve" smooth="yes"/>
      <point x="314" y="92"/>
      <point x="282" y="76"/>
      <point x="250" y="76" type="curve" smooth="yes"/>
      <point x="238" y="76" type="line"/>
      <point x="90" y="517" type="line"/>
      <point x="0" y="517" type="line"/>
    </contour>
  </outline>
</glyph>
<glyph name="choChan-thai" format="2">
  <advance width="532"/>
  <unicode hex="0E08"/>
  <anchor x="427" y="0" name="bottom"/>
  <anchor x="452" y="506" name="top"/>
  <outline>
    <contour>
      <point x="147" y="0" type="line"/>
      <point x="231" y="0" type="line" smooth="yes"/>
      <point x="407" y="0"/>
      <point x="471" y="94"/>
      <point x="471" y="260" type="curve" smooth="yes"/>
      <point x="471" y="430"/>
      <point x="405" y="527"/>
      <point x="223" y="527" type="curve" smooth="yes"/>
      <point x="147" y="527"/>
      <point x="78" y="510"/>
      <point x="38" y="487" type="curve"/>
      <point x="38" y="405" type="line"/>
      <point x="91" y="438"/>
      <point x="149" y="453"/>
      <point x="212" y="453" type="curve" smooth="yes"/>
      <point x="335" y="453"/>
      <point x="380" y="398"/>
      <point x="380" y="260" type="curve" smooth="yes"/>
      <point x="380" y="124"/>
      <point x="335" y="71"/>
      <point x="245" y="71" type="curve" smooth="yes"/>
      <point x="232" y="71" type="line"/>
      <point x="232" y="297" type="line"/>
      <point x="71" y="297" type="line"/>
      <point x="71" y="229" type="line"/>
      <point x="147" y="229" type="line"/>
    </contour>
  </outline>
</glyph>
<glyph name="choChing-thai" format="2">
  <advance width="604"/>
  <unicode hex="0E09"/>
  <anchor x="523" y="0" name="bottom"/>
  <anchor x="513" y="506" name="top"/>
  <outline>
    <contour>
      <point x="265" y="-9" type="curve" smooth="yes"/>
      <point x="355" y="-9"/>
      <point x="418" y="26"/>
      <point x="441" y="76" type="curve"/>
      <point x="445" y="76" type="line"/>
      <point x="450" y="0" type="line"/>
      <point x="523" y="0" type="line"/>
      <point x="523" y="305" type="line" smooth="yes"/>
      <point x="523" y="449"/>
      <point x="453" y="527"/>
      <point x="283" y="527" type="curve" smooth="yes"/>
      <point x="201" y="527"/>
      <point x="128" y="509"/>
      <point x="90" y="487" type="curve"/>
      <point x="90" y="405" type="line"/>
      <point x="147" y="438"/>
      <point x="208" y="453"/>
      <point x="272" y="453" type="curve" smooth="yes"/>
      <point x="373" y="453"/>
      <point x="434" y="420"/>
      <point x="434" y="300" type="curve" smooth="yes"/>
      <point x="434" y="216" type="line" smooth="yes"/>
      <point x="434" y="125"/>
      <point x="379" y="66"/>
      <point x="285" y="66" type="curve" smooth="yes"/>
      <point x="208" y="66"/>
      <point x="169" y="104"/>
      <point x="169" y="173" type="curve" smooth="yes"/>
      <point x="169" y="295" type="line"/>
      <point x="81" y="295" type="line"/>
      <point x="81" y="164" type="line" smooth="yes"/>
      <point x="81" y="44"/>
      <point x="152" y="-9"/>
    </contour>
  </outline>
</glyph>
<glyph name="choChang-thai" format="2">
  <advance width="550"/>
  <unicode hex="0E0A"/>
  <anchor x="445" y="0" name="bottom"/>
  <anchor x="477" y="504" name="top"/>
  <outline>
    <contour>
      <point x="275" y="-10" type="curve" smooth="yes"/>
      <point x="401" y="-10"/>
      <point x="466" y="48"/>
      <point x="466" y="148" type="curve" smooth="yes"/>
      <point x="466" y="282" type="line" smooth="yes"/>
      <point x="466" y="319"/>
      <point x="460" y="363"/>
      <point x="405" y="377" type="curve"/>
      <point x="405" y="380" type="line"/>
      <point x="466" y="401"/>
      <point x="477" y="449"/>
      <point x="477" y="517" type="curve"/>
      <point x="388" y="517" type="line"/>
      <point x="388" y="472"/>
      <point x="388" y="408"/>
      <point x="306" y="408" type="curve" smooth="yes"/>
      <point x="301" y="408" type="line"/>
      <point x="301" y="352" type="line"/>
      <point x="305" y="352" type="line" smooth="yes"/>
      <point x="356" y="352"/>
      <point x="377" y="327"/>
      <point x="377" y="281" type="curve" smooth="yes"/>
      <point x="377" y="153" type="line" smooth="yes"/>
      <point x="377" y="92"/>
      <point x="342" y="63"/>
      <point x="275" y="63" type="curve" smooth="yes"/>
      <point x="217" y="63"/>
      <point x="166" y="84"/>
      <point x="166" y="170" type="curve" smooth="yes"/>
      <point x="166" y="224" type="line" smooth="yes"/>
      <point x="166" y="270"/>
      <point x="182" y="294"/>
      <point x="205" y="325" type="curve" smooth="yes"/>
      <point x="226" y="353"/>
      <point x="247" y="381"/>
      <point x="247" y="426" type="curve" smooth="yes"/>
      <point x="247" y="483"/>
      <point x="219" y="523"/>
      <point x="145" y="523" type="curve" smooth="yes"/>
      <point x="118" y="523"/>
      <point x="78" y="517"/>
      <point x="54" y="502" type="curve"/>
      <point x="74" y="439" type="line"/>
      <point x="91" y="447"/>
      <point x="110" y="452"/>
      <point x="126" y="452" type="curve" smooth="yes"/>
      <point x="147" y="452"/>
      <point x="163" y="442"/>
      <point x="163" y="416" type="curve" smooth="yes"/>
      <point x="163" y="386"/>
      <point x="144" y="368"/>
      <point x="121" y="340" type="curve" smooth="yes"/>
      <point x="100" y="314"/>
      <point x="77" y="280"/>
      <point x="77" y="219" type="curve" smooth="yes"/>
      <point x="77" y="163" type="line" smooth="yes"/>
      <point x="77" y="48"/>
      <point x="148" y="-10"/>
    </contour>
  </outline>
</glyph>
<glyph name="soSo-thai" format="2">
  <advance width="556"/>
  <unicode hex="0E0B"/>
  <note>
uni0E0B
</note>
  <anchor x="452" y="0" name="bottom"/>
  <anchor x="493" y="506" name="top"/>
  <outline>
    <contour>
      <point x="276" y="-10" type="curve" smooth="yes"/>
      <point x="403" y="-10"/>
      <point x="473" y="48"/>
      <point x="473" y="148" type="curve" smooth="yes"/>
      <point x="473" y="273" type="line" smooth="yes"/>
      <point x="473" y="327"/>
      <point x="461" y="364"/>
      <point x="411" y="378" type="curve"/>
      <point x="411" y="382" type="line"/>
      <point x="470" y="403"/>
      <point x="483" y="449"/>
      <point x="483" y="517" type="curve"/>
      <point x="394" y="517" type="line"/>
      <point x="394" y="472"/>
      <point x="393" y="408"/>
      <point x="312" y="408" type="curve" smooth="yes"/>
      <point x="307" y="408" type="line"/>
      <point x="307" y="352" type="line"/>
      <point x="311" y="352" type="line" smooth="yes"/>
      <point x="361" y="352"/>
      <point x="384" y="327"/>
      <point x="384" y="281" type="curve" smooth="yes"/>
      <point x="384" y="153" type="line" smooth="yes"/>
      <point x="384" y="92"/>
      <point x="345" y="63"/>
      <point x="276" y="63" type="curve" smooth="yes"/>
      <point x="221" y="63"/>
      <point x="171" y="82"/>
      <point x="171" y="170" type="curve" smooth="yes"/>
      <point x="171" y="229" type="line" smooth="yes"/>
      <point x="171" y="286"/>
      <point x="193" y="304"/>
      <point x="224" y="341" type="curve" smooth="yes"/>
      <point x="266" y="391"/>
      <point x="267" y="417"/>
      <point x="267" y="473" type="curve" smooth="yes"/>
      <point x="267" y="517" type="line"/>
      <point x="218" y="517" type="line"/>
      <point x="199" y="479" type="line"/>
      <point x="186" y="468"/>
      <point x="168" y="464"/>
      <point x="154" y="464" type="curve" smooth="yes"/>
      <point x="131" y="464"/>
      <point x="122" y="480"/>
      <point x="122" y="517" type="curve"/>
      <point x="44" y="517" type="line"/>
      <point x="44" y="496" type="line" smooth="yes"/>
      <point x="44" y="439"/>
      <point x="78" y="407"/>
      <point x="126" y="407" type="curve" smooth="yes"/>
      <point x="150" y="407"/>
      <point x="169" y="414"/>
      <point x="184" y="424" type="curve"/>
      <point x="187" y="422" type="line"/>
      <point x="185" y="403"/>
      <point x="168" y="386"/>
      <point x="147" y="365" type="curve" smooth="yes"/>
      <point x="111" y="329"/>
      <point x="82" y="294"/>
      <point x="82" y="221" type="curve" smooth="yes"/>
      <point x="82" y="164" type="line" smooth="yes"/>
      <point x="82" y="49"/>
      <point x="150" y="-10"/>
    </contour>
  </outline>
</glyph>
<glyph name="choChoe-thai" format="2">
  <advance width="906"/>
  <unicode hex="0E0C"/>
  <anchor x="804" y="0" name="bottom"/>
  <anchor x="824" y="506" name="top"/>
  <outline>
    <contour>
      <point x="194" y="-9" type="curve" smooth="yes"/>
      <point x="216" y="-9"/>
      <point x="240" y="-6"/>
      <point x="265" y="5" type="curve"/>
      <point x="252" y="68" type="line"/>
      <point x="241" y="64"/>
      <point x="228" y="62"/>
      <point x="215" y="62" type="curve" smooth="yes"/>
      <point x="186" y="62"/>
      <point x="173" y="73"/>
      <point x="173" y="101" type="curve" smooth="yes"/>
      <point x="173" y="182" type="line" smooth="yes"/>
      <point x="173" y="248"/>
      <point x="213" y="274"/>
      <point x="263" y="274" type="curve"/>
      <point x="271" y="320" type="line"/>
      <point x="157" y="370" type="line"/>
      <point x="158" y="423"/>
      <point x="209" y="453"/>
      <point x="282" y="453" type="curve" smooth="yes"/>
      <point x="351" y="453"/>
      <point x="412" y="426"/>
      <point x="412" y="338" type="curve" smooth="yes"/>
      <point x="412" y="0" type="line"/>
      <point x="486" y="0" type="line"/>
      <point x="490" y="82" type="line"/>
      <point x="494" y="82" type="line"/>
      <point x="518" y="25"/>
      <point x="582" y="-9"/>
      <point x="654" y="-9" type="curve" smooth="yes"/>
      <point x="756" y="-9"/>
      <point x="825" y="40"/>
      <point x="825" y="164" type="curve" smooth="yes"/>
      <point x="825" y="517" type="line"/>
      <point x="736" y="517" type="line"/>
      <point x="736" y="171" type="line" smooth="yes"/>
      <point x="736" y="97"/>
      <point x="697" y="66"/>
      <point x="635" y="66" type="curve" smooth="yes"/>
      <point x="556" y="66"/>
      <point x="501" y="126"/>
      <point x="501" y="217" type="curve" smooth="yes"/>
      <point x="501" y="348" type="line" smooth="yes"/>
      <point x="501" y="476"/>
      <point x="395" y="527"/>
      <point x="283" y="527" type="curve" smooth="yes"/>
      <point x="150" y="527"/>
      <point x="66" y="457"/>
      <point x="66" y="375" type="curve" smooth="yes"/>
      <point x="66" y="344" type="line"/>
      <point x="181" y="305" type="line"/>
      <point x="180" y="302" type="line"/>
      <point x="123" y="288"/>
      <point x="84" y="258"/>
      <point x="84" y="180" type="curve" smooth="yes"/>
      <point x="84" y="92" type="line" smooth="yes"/>
      <point x="84" y="14"/>
      <point x="137" y="-9"/>
    </contour>
  </outline>
</glyph>
<glyph name="yoYing-thai" format="2">
  <advance width="909"/>
  <unicode hex="0E0D"/>
  <anchor x="768" y="-153" name="bottom"/>
  <anchor x="820" y="506" name="top"/>
  <outline>
    <contour>
      <point x="598" y="-166" type="curve" smooth="yes"/>
      <point x="742" y="-166"/>
      <point x="821" y="-95"/>
      <point x="821" y="49" type="curve" smooth="yes"/>
      <point x="821" y="517" type="line"/>
      <point x="732" y="517" type="line"/>
      <point x="732" y="227" type="line" smooth="yes"/>
      <point x="732" y="136"/>
      <point x="679" y="77"/>
      <point x="597" y="77" type="curve" smooth="yes"/>
      <point x="537" y="77"/>
      <point x="497" y="108"/>
      <point x="497" y="181" type="curve" smooth="yes"/>
      <point x="497" y="348" type="line" smooth="yes"/>
      <point x="497" y="478"/>
      <point x="391" y="527"/>
      <point x="281" y="527" type="curve" smooth="yes"/>
      <point x="150" y="527"/>
      <point x="66" y="459"/>
      <point x="66" y="375" type="curve" smooth="yes"/>
      <point x="66" y="344" type="line"/>
      <point x="181" y="305" type="line"/>
      <point x="180" y="302" type="line"/>
      <point x="123" y="288"/>
      <point x="84" y="258"/>
      <point x="84" y="180" type="curve" smooth="yes"/>
      <point x="84" y="92" type="line" smooth="yes"/>
      <point x="84" y="14"/>
      <point x="137" y="-9"/>
      <point x="194" y="-9" type="curve" smooth="yes"/>
      <point x="216" y="-9"/>
      <point x="240" y="-6"/>
      <point x="265" y="5" type="curve"/>
      <point x="252" y="68" type="line"/>
      <point x="241" y="64"/>
      <point x="228" y="62"/>
      <point x="214" y="62" type="curve" smooth="yes"/>
      <point x="186" y="62"/>
      <point x="173" y="73"/>
      <point x="173" y="101" type="curve" smooth="yes"/>
      <point x="173" y="182" type="line" smooth="yes"/>
      <point x="173" y="248"/>
      <point x="213" y="274"/>
      <point x="263" y="274" type="curve"/>
      <point x="271" y="320" type="line"/>
      <point x="157" y="370" type="line"/>
      <point x="158" y="425"/>
      <point x="209" y="453"/>
      <point x="280" y="453" type="curve" smooth="yes"/>
      <point x="346" y="453"/>
      <point x="408" y="428"/>
      <point x="408" y="340" type="curve" smooth="yes"/>
      <point x="408" y="172" type="line" smooth="yes"/>
      <point x="408" y="49"/>
      <point x="481" y="1"/>
      <point x="576" y="1" type="curve" smooth="yes"/>
      <point x="651" y="1"/>
      <point x="703" y="31"/>
      <point x="730" y="70" type="curve"/>
      <point x="734" y="70" type="line"/>
      <point x="734" y="45" type="line" smooth="yes"/>
      <point x="734" y="-60"/>
      <point x="676" y="-89"/>
      <point x="596" y="-89" type="curve" smooth="yes"/>
      <point x="542" y="-89"/>
      <point x="479" y="-75"/>
      <point x="437" y="-49" type="curve"/>
      <point x="437" y="-134" type="line"/>
      <point x="486" y="-156"/>
      <point x="543" y="-166"/>
    </contour>
  </outline>
</glyph>
<glyph name="doChada-thai" format="2">
  <advance width="603"/>
  <unicode hex="0E0E"/>
  <anchor x="522" y="-179" name="bottom"/>
  <anchor x="510" y="506" name="top"/>
  <outline>
    <contour>
      <point x="103" y="-191" type="line"/>
      <point x="194" y="-191" type="line"/>
      <point x="194" y="-181" type="line" smooth="yes"/>
      <point x="194" y="-152"/>
      <point x="220" y="-125"/>
      <point x="278" y="-125" type="curve" smooth="yes"/>
      <point x="345" y="-125"/>
      <point x="420" y="-157"/>
      <point x="452" y="-191" type="curve"/>
      <point x="522" y="-191" type="line"/>
      <point x="522" y="347" type="line" smooth="yes"/>
      <point x="522" y="473"/>
      <point x="416" y="527"/>
      <point x="293" y="527" type="curve" smooth="yes"/>
      <point x="150" y="527"/>
      <point x="67" y="454"/>
      <point x="67" y="375" type="curve" smooth="yes"/>
      <point x="67" y="344" type="line"/>
      <point x="182" y="305" type="line"/>
      <point x="181" y="302" type="line"/>
      <point x="124" y="289"/>
      <point x="92" y="259"/>
      <point x="92" y="183" type="curve" smooth="yes"/>
      <point x="92" y="98" type="line" smooth="yes"/>
      <point x="92" y="73"/>
      <point x="83" y="61"/>
      <point x="62" y="61" type="curve" smooth="yes"/>
      <point x="51" y="61"/>
      <point x="38" y="64"/>
      <point x="29" y="67" type="curve"/>
      <point x="19" y="6" type="line"/>
      <point x="42" y="-4"/>
      <point x="64" y="-8"/>
      <point x="88" y="-8" type="curve" smooth="yes"/>
      <point x="140" y="-8"/>
      <point x="181" y="13"/>
      <point x="181" y="90" type="curve" smooth="yes"/>
      <point x="181" y="180" type="line" smooth="yes"/>
      <point x="181" y="246"/>
      <point x="214" y="274"/>
      <point x="264" y="274" type="curve"/>
      <point x="272" y="320" type="line"/>
      <point x="158" y="370" type="line"/>
      <point x="158" y="418"/>
      <point x="209" y="453"/>
      <point x="292" y="453" type="curve" smooth="yes"/>
      <point x="370" y="453"/>
      <point x="433" y="420"/>
      <point x="433" y="338" type="curve" smooth="yes"/>
      <point x="433" y="-136" type="line"/>
      <point x="459" y="-127" type="line"/>
      <point x="427" y="-90"/>
      <point x="352" y="-52"/>
      <point x="261" y="-52" type="curve" smooth="yes"/>
      <point x="158" y="-52"/>
      <point x="103" y="-99"/>
      <point x="103" y="-175" type="curve" smooth="yes"/>
    </contour>
  </outline>
</glyph>
<glyph name="toPatak-thai" format="2">
  <advance width="603"/>
  <unicode hex="0E0F"/>
  <anchor x="522" y="-179" name="bottom"/>
  <anchor x="511" y="506" name="top"/>
  <outline>
    <contour>
      <point x="76" y="-191" type="line"/>
      <point x="160" y="-191" type="line"/>
      <point x="160" y="-182" type="line" smooth="yes"/>
      <point x="160" y="-159"/>
      <point x="173" y="-130"/>
      <point x="209" y="-130" type="curve" smooth="yes"/>
      <point x="245" y="-130"/>
      <point x="267" y="-157"/>
      <point x="284" y="-191" type="curve"/>
      <point x="307" y="-191" type="line"/>
      <point x="368" y="-138" type="line"/>
      <point x="442" y="-191" type="line"/>
      <point x="522" y="-191" type="line"/>
      <point x="522" y="347" type="line" smooth="yes"/>
      <point x="522" y="473"/>
      <point x="416" y="527"/>
      <point x="293" y="527" type="curve" smooth="yes"/>
      <point x="150" y="527"/>
      <point x="67" y="454"/>
      <point x="67" y="375" type="curve" smooth="yes"/>
      <point x="67" y="344" type="line"/>
      <point x="182" y="305" type="line"/>
      <point x="181" y="302" type="line"/>
      <point x="124" y="289"/>
      <point x="92" y="259"/>
      <point x="92" y="183" type="curve" smooth="yes"/>
      <point x="92" y="98" type="line" smooth="yes"/>
      <point x="92" y="73"/>
      <point x="83" y="61"/>
      <point x="62" y="61" type="curve" smooth="yes"/>
      <point x="51" y="61"/>
      <point x="38" y="64"/>
      <point x="29" y="67" type="curve"/>
      <point x="19" y="6" type="line"/>
      <point x="42" y="-4"/>
      <point x="64" y="-8"/>
      <point x="88" y="-8" type="curve" smooth="yes"/>
      <point x="140" y="-8"/>
      <point x="181" y="13"/>
      <point x="181" y="90" type="curve" smooth="yes"/>
      <point x="181" y="180" type="line" smooth="yes"/>
      <point x="181" y="246"/>
      <point x="214" y="274"/>
      <point x="264" y="274" type="curve"/>
      <point x="272" y="320" type="line"/>
      <point x="158" y="370" type="line"/>
      <point x="158" y="418"/>
      <point x="209" y="453"/>
      <point x="292" y="453" type="curve" smooth="yes"/>
      <point x="370" y="453"/>
      <point x="433" y="420"/>
      <point x="433" y="338" type="curve" smooth="yes"/>
      <point x="433" y="-135" type="line"/>
      <point x="459" y="-130" type="line"/>
      <point x="366" y="-66" type="line"/>
      <point x="302" y="-117" type="line"/>
      <point x="285" y="-85"/>
      <point x="254" y="-60"/>
      <point x="193" y="-60" type="curve" smooth="yes"/>
      <point x="130" y="-60"/>
      <point x="76" y="-98"/>
      <point x="76" y="-166" type="curve" smooth="yes"/>
    </contour>
  </outline>
</glyph>
<glyph name="thoThan-thai" format="2">
  <advance width="547"/>
  <unicode hex="0E10"/>
  <anchor x="461" y="-179" name="bottom"/>
  <anchor x="466" y="506" name="top"/>
  <outline>
    <contour>
      <point x="143" y="0" type="line"/>
      <point x="227" y="0" type="line" smooth="yes"/>
      <point x="403" y="0"/>
      <point x="467" y="94"/>
      <point x="467" y="259" type="curve" smooth="yes"/>
      <point x="467" y="355"/>
      <point x="446" y="425"/>
      <point x="389" y="463" type="curve"/>
      <point x="358" y="507"/>
      <point x="300" y="527"/>
      <point x="219" y="527" type="curve" smooth="yes"/>
      <point x="143" y="527"/>
      <point x="74" y="510"/>
      <point x="34" y="487" type="curve"/>
      <point x="34" y="405" type="line"/>
      <point x="87" y="438"/>
      <point x="145" y="453"/>
      <point x="208" y="453" type="curve" smooth="yes"/>
      <point x="331" y="453"/>
      <point x="376" y="398"/>
      <point x="376" y="260" type="curve" smooth="yes"/>
      <point x="376" y="124"/>
      <point x="331" y="71"/>
      <point x="241" y="71" type="curve" smooth="yes"/>
      <point x="228" y="71" type="line"/>
      <point x="228" y="297" type="line"/>
      <point x="67" y="297" type="line"/>
      <point x="67" y="229" type="line"/>
      <point x="143" y="229" type="line"/>
    </contour>
    <contour>
      <point x="41" y="-191" type="line"/>
      <point x="120" y="-191" type="line"/>
      <point x="120" y="-182" type="line" smooth="yes"/>
      <point x="120" y="-159"/>
      <point x="130" y="-130"/>
      <point x="164" y="-130" type="curve" smooth="yes"/>
      <point x="197" y="-130"/>
      <point x="219" y="-157"/>
      <point x="234" y="-191" type="curve"/>
      <point x="253" y="-191" type="line"/>
      <point x="310" y="-138" type="line"/>
      <point x="376" y="-191" type="line"/>
      <point x="460" y="-191" type="line"/>
      <point x="460" y="-47" type="line"/>
      <point x="380" y="-47" type="line"/>
      <point x="380" y="-135" type="line"/>
      <point x="401" y="-130" type="line"/>
      <point x="310" y="-66" type="line"/>
      <point x="251" y="-117" type="line"/>
      <point x="233" y="-86"/>
      <point x="204" y="-62"/>
      <point x="150" y="-62" type="curve" smooth="yes"/>
      <point x="93" y="-62"/>
      <point x="41" y="-99"/>
      <point x="41" y="-167" type="curve" smooth="yes"/>
    </contour>
    <contour>
      <point x="401" y="442" type="line"/>
      <point x="461" y="453"/>
      <point x="510" y="492"/>
      <point x="510" y="551" type="curve"/>
      <point x="423" y="551" type="line"/>
      <point x="423" y="514"/>
      <point x="385" y="494"/>
      <point x="351" y="488" type="curve"/>
    </contour>
  </outline>
</glyph>
<glyph name="thoNangmontho-thai" format="2">
  <advance width="626"/>
  <unicode hex="0E11"/>
  <anchor x="547" y="0" name="bottom"/>
  <anchor x="536" y="506" name="top"/>
  <outline>
    <contour>
      <point x="98" y="0" type="line"/>
      <point x="187" y="0" type="line"/>
      <point x="187" y="198" type="line" smooth="yes"/>
      <point x="187" y="282"/>
      <point x="200" y="310"/>
      <point x="246" y="362" type="curve" smooth="yes"/>
      <point x="301" y="424"/>
      <point x="341" y="451"/>
      <point x="387" y="451" type="curve" smooth="yes"/>
      <point x="431" y="451"/>
      <point x="456" y="426"/>
      <point x="456" y="370" type="curve" smooth="yes"/>
      <point x="456" y="0" type="line"/>
      <point x="545" y="0" type="line"/>
      <point x="545" y="390" type="line" smooth="yes"/>
      <point x="545" y="470"/>
      <point x="506" y="527"/>
      <point x="402" y="527" type="curve" smooth="yes"/>
      <point x="351" y="527"/>
      <point x="301" y="509"/>
      <point x="260" y="448" type="curve"/>
      <point x="256" y="448" type="line"/>
      <point x="256" y="517" type="line"/>
      <point x="210" y="517" type="line"/>
      <point x="191" y="479" type="line"/>
      <point x="181" y="467"/>
      <point x="167" y="464"/>
      <point x="155" y="464" type="curve" smooth="yes"/>
      <point x="131" y="464"/>
      <point x="122" y="478"/>
      <point x="122" y="517" type="curve"/>
      <point x="44" y="517" type="line"/>
      <point x="44" y="496" type="line" smooth="yes"/>
      <point x="44" y="439"/>
      <point x="78" y="407"/>
      <point x="126" y="407" type="curve" smooth="yes"/>
      <point x="150" y="407"/>
      <point x="169" y="414"/>
      <point x="184" y="424" type="curve"/>
      <point x="187" y="422" type="line"/>
      <point x="184" y="404"/>
      <point x="181" y="401"/>
      <point x="139" y="355" type="curve" smooth="yes"/>
      <point x="105" y="318"/>
      <point x="98" y="278"/>
      <point x="98" y="202" type="curve" smooth="yes"/>
    </contour>
  </outline>
</glyph>
<glyph name="thoPhuthao-thai" format="2">
  <advance width="903"/>
  <unicode hex="0E12"/>
  <anchor x="831" y="0" name="bottom"/>
  <anchor x="850" y="506" name="top"/>
  <outline>
    <contour>
      <point x="270" y="-9" type="curve" smooth="yes"/>
      <point x="299" y="-9"/>
      <point x="327" y="-7"/>
      <point x="348" y="3" type="curve"/>
      <point x="339" y="70" type="line"/>
      <point x="323" y="66"/>
      <point x="307" y="64"/>
      <point x="282" y="64" type="curve" smooth="yes"/>
      <point x="176" y="64"/>
      <point x="152" y="136"/>
      <point x="152" y="268" type="curve" smooth="yes"/>
      <point x="152" y="408"/>
      <point x="178" y="453"/>
      <point x="227" y="453" type="curve" smooth="yes"/>
      <point x="253" y="453"/>
      <point x="274" y="441"/>
      <point x="279" y="397" type="curve"/>
      <point x="334" y="397" type="line"/>
      <point x="338" y="436"/>
      <point x="355" y="453"/>
      <point x="388" y="453" type="curve" smooth="yes"/>
      <point x="418" y="453"/>
      <point x="439" y="438"/>
      <point x="439" y="391" type="curve" smooth="yes"/>
      <point x="439" y="0" type="line"/>
      <point x="512" y="0" type="line"/>
      <point x="517" y="82" type="line"/>
      <point x="521" y="82" type="line"/>
      <point x="544" y="28"/>
      <point x="601" y="-9"/>
      <point x="686" y="-9" type="curve" smooth="yes"/>
      <point x="780" y="-9"/>
      <point x="851" y="40"/>
      <point x="851" y="164" type="curve" smooth="yes"/>
      <point x="851" y="517" type="line"/>
      <point x="762" y="517" type="line"/>
      <point x="762" y="171" type="line" smooth="yes"/>
      <point x="762" y="97"/>
      <point x="722" y="66"/>
      <point x="663" y="66" type="curve" smooth="yes"/>
      <point x="581" y="66"/>
      <point x="528" y="126"/>
      <point x="528" y="217" type="curve" smooth="yes"/>
      <point x="528" y="394" type="line" smooth="yes"/>
      <point x="528" y="483"/>
      <point x="478" y="527"/>
      <point x="402" y="527" type="curve" smooth="yes"/>
      <point x="358" y="527"/>
      <point x="323" y="513"/>
      <point x="310" y="477" type="curve"/>
      <point x="306" y="477" type="line"/>
      <point x="293" y="512"/>
      <point x="260" y="527"/>
      <point x="216" y="527" type="curve" smooth="yes"/>
      <point x="120" y="527"/>
      <point x="63" y="458"/>
      <point x="63" y="265" type="curve" smooth="yes"/>
      <point x="63" y="102"/>
      <point x="107" y="-9"/>
    </contour>
  </outline>
</glyph>
<glyph name="noNen-thai" format="2">
  <advance width="909"/>
  <unicode hex="0E13"/>
  <anchor x="820" y="0" name="bottom"/>
  <anchor x="820" y="506" name="top"/>
  <outline>
    <contour>
      <point x="194" y="-9" type="curve" smooth="yes"/>
      <point x="216" y="-9"/>
      <point x="240" y="-6"/>
      <point x="265" y="5" type="curve"/>
      <point x="252" y="68" type="line"/>
      <point x="241" y="64"/>
      <point x="228" y="62"/>
      <point x="215" y="62" type="curve" smooth="yes"/>
      <point x="186" y="62"/>
      <point x="173" y="73"/>
      <point x="173" y="101" type="curve" smooth="yes"/>
      <point x="173" y="182" type="line" smooth="yes"/>
      <point x="173" y="248"/>
      <point x="213" y="274"/>
      <point x="263" y="274" type="curve"/>
      <point x="271" y="320" type="line"/>
      <point x="157" y="370" type="line"/>
      <point x="158" y="425"/>
      <point x="209" y="453"/>
      <point x="280" y="453" type="curve" smooth="yes"/>
      <point x="346" y="453"/>
      <point x="408" y="428"/>
      <point x="408" y="340" type="curve" smooth="yes"/>
      <point x="408" y="162" type="line" smooth="yes"/>
      <point x="408" y="39"/>
      <point x="478" y="-9"/>
      <point x="580" y="-9" type="curve" smooth="yes"/>
      <point x="652" y="-9"/>
      <point x="715" y="25"/>
      <point x="738" y="82" type="curve"/>
      <point x="743" y="82" type="line"/>
      <point x="748" y="0" type="line"/>
      <point x="821" y="0" type="line"/>
      <point x="821" y="517" type="line"/>
      <point x="732" y="517" type="line"/>
      <point x="732" y="217" type="line" smooth="yes"/>
      <point x="732" y="126"/>
      <point x="678" y="66"/>
      <point x="598" y="66" type="curve" smooth="yes"/>
      <point x="536" y="66"/>
      <point x="497" y="97"/>
      <point x="497" y="171" type="curve" smooth="yes"/>
      <point x="497" y="348" type="line" smooth="yes"/>
      <point x="497" y="478"/>
      <point x="391" y="527"/>
      <point x="281" y="527" type="curve" smooth="yes"/>
      <point x="150" y="527"/>
      <point x="66" y="459"/>
      <point x="66" y="375" type="curve" smooth="yes"/>
      <point x="66" y="344" type="line"/>
      <point x="181" y="305" type="line"/>
      <point x="180" y="302" type="line"/>
      <point x="123" y="288"/>
      <point x="84" y="258"/>
      <point x="84" y="180" type="curve" smooth="yes"/>
      <point x="84" y="92" type="line" smooth="yes"/>
      <point x="84" y="14"/>
      <point x="137" y="-9"/>
    </contour>
  </outline>
</glyph>
<glyph name="doDek-thai" format="2">
  <advance width="616"/>
  <unicode hex="0E14"/>
  <anchor x="535" y="0" name="bottom"/>
  <anchor x="527" y="506" name="top"/>
  <outline>
    <contour>
      <point x="268" y="-9" type="curve" smooth="yes"/>
      <point x="293" y="-9"/>
      <point x="323" y="-7"/>
      <point x="344" y="3" type="curve"/>
      <point x="335" y="72" type="line"/>
      <point x="319" y="67"/>
      <point x="302" y="64"/>
      <point x="282" y="64" type="curve" smooth="yes"/>
      <point x="178" y="64"/>
      <point x="149" y="146"/>
      <point x="149" y="254" type="curve" smooth="yes"/>
      <point x="149" y="418"/>
      <point x="216" y="453"/>
      <point x="309" y="453" type="curve" smooth="yes"/>
      <point x="410" y="453"/>
      <point x="447" y="412"/>
      <point x="447" y="336" type="curve" smooth="yes"/>
      <point x="447" y="0" type="line"/>
      <point x="535" y="0" type="line"/>
      <point x="535" y="344" type="line" smooth="yes"/>
      <point x="535" y="456"/>
      <point x="466" y="527"/>
      <point x="306" y="527" type="curve" smooth="yes"/>
      <point x="159" y="527"/>
      <point x="60" y="468"/>
      <point x="60" y="255" type="curve" smooth="yes"/>
      <point x="60" y="108"/>
      <point x="107" y="-9"/>
    </contour>
  </outline>
</glyph>
<glyph name="toTao-thai" format="2">
  <advance width="636"/>
  <unicode hex="0E15"/>
  <note>
uni0E15
</note>
  <anchor x="555" y="0" name="bottom"/>
  <anchor x="543" y="506" name="top"/>
  <outline>
    <contour>
      <point x="275" y="-9" type="curve" smooth="yes"/>
      <point x="303" y="-9"/>
      <point x="333" y="-7"/>
      <point x="353" y="3" type="curve"/>
      <point x="344" y="70" type="line"/>
      <point x="328" y="66"/>
      <point x="312" y="64"/>
      <point x="286" y="64" type="curve" smooth="yes"/>
      <point x="176" y="64"/>
      <point x="152" y="139"/>
      <point x="152" y="268" type="curve" smooth="yes"/>
      <point x="152" y="399"/>
      <point x="178" y="453"/>
      <point x="232" y="453" type="curve" smooth="yes"/>
      <point x="260" y="453"/>
      <point x="286" y="441"/>
      <point x="291" y="397" type="curve"/>
      <point x="347" y="397" type="line"/>
      <point x="351" y="436"/>
      <point x="367" y="453"/>
      <point x="406" y="453" type="curve" smooth="yes"/>
      <point x="441" y="453"/>
      <point x="466" y="439"/>
      <point x="466" y="391" type="curve" smooth="yes"/>
      <point x="466" y="0" type="line"/>
      <point x="555" y="0" type="line"/>
      <point x="555" y="394" type="line" smooth="yes"/>
      <point x="555" y="483"/>
      <point x="506" y="527"/>
      <point x="419" y="527" type="curve" smooth="yes"/>
      <point x="372" y="527"/>
      <point x="335" y="513"/>
      <point x="322" y="477" type="curve"/>
      <point x="318" y="477" type="line"/>
      <point x="305" y="512"/>
      <point x="271" y="527"/>
      <point x="224" y="527" type="curve" smooth="yes"/>
      <point x="120" y="527"/>
      <point x="63" y="453"/>
      <point x="63" y="269" type="curve" smooth="yes"/>
      <point x="63" y="108"/>
      <point x="107" y="-9"/>
    </contour>
  </outline>
</glyph>
<glyph name="thoThung-thai" format="2">
  <advance width="602"/>
  <unicode hex="0E16"/>
  <anchor x="521" y="0" name="bottom"/>
  <anchor x="510" y="506" name="top"/>
  <outline>
    <contour>
      <point x="194" y="-9" type="curve" smooth="yes"/>
      <point x="216" y="-9"/>
      <point x="240" y="-6"/>
      <point x="265" y="5" type="curve"/>
      <point x="252" y="68" type="line"/>
      <point x="241" y="64"/>
      <point x="228" y="62"/>
      <point x="215" y="62" type="curve" smooth="yes"/>
      <point x="186" y="62"/>
      <point x="173" y="73"/>
      <point x="173" y="101" type="curve" smooth="yes"/>
      <point x="173" y="191" type="line" smooth="yes"/>
      <point x="173" y="256"/>
      <point x="213" y="273"/>
      <point x="263" y="274" type="curve"/>
      <point x="271" y="320" type="line"/>
      <point x="157" y="370" type="line"/>
      <point x="157" y="418"/>
      <point x="208" y="453"/>
      <point x="291" y="453" type="curve" smooth="yes"/>
      <point x="370" y="453"/>
      <point x="432" y="420"/>
      <point x="432" y="338" type="curve" smooth="yes"/>
      <point x="432" y="0" type="line"/>
      <point x="521" y="0" type="line"/>
      <point x="521" y="347" type="line" smooth="yes"/>
      <point x="521" y="473"/>
      <point x="415" y="527"/>
      <point x="292" y="527" type="curve" smooth="yes"/>
      <point x="150" y="527"/>
      <point x="66" y="454"/>
      <point x="66" y="375" type="curve" smooth="yes"/>
      <point x="66" y="344" type="line"/>
      <point x="181" y="305" type="line"/>
      <point x="180" y="302" type="line"/>
      <point x="123" y="288"/>
      <point x="84" y="258"/>
      <point x="84" y="180" type="curve" smooth="yes"/>
      <point x="84" y="92" type="line" smooth="yes"/>
      <point x="84" y="14"/>
      <point x="137" y="-9"/>
    </contour>
  </outline>
</glyph>
<glyph name="thoThahan-thai" format="2">
  <advance width="609"/>
  <unicode hex="0E17"/>
  <anchor x="528" y="0" name="bottom"/>
  <anchor x="517" y="506" name="top"/>
  <outline>
    <contour>
      <point x="84" y="0" type="line"/>
      <point x="173" y="0" type="line"/>
      <point x="173" y="295" type="line" smooth="yes"/>
      <point x="173" y="384"/>
      <point x="226" y="451"/>
      <point x="320" y="451" type="curve" smooth="yes"/>
      <point x="398" y="451"/>
      <point x="439" y="413"/>
      <point x="439" y="338" type="curve" smooth="yes"/>
      <point x="439" y="0" type="line"/>
      <point x="528" y="0" type="line"/>
      <point x="528" y="344" type="line" smooth="yes"/>
      <point x="528" y="470"/>
      <point x="456" y="527"/>
      <point x="337" y="527" type="curve" smooth="yes"/>
      <point x="252" y="527"/>
      <point x="189" y="491"/>
      <point x="166" y="435" type="curve"/>
      <point x="162" y="435" type="line"/>
      <point x="146" y="517" type="line"/>
      <point x="84" y="517" type="line"/>
    </contour>
  </outline>
</glyph>
<glyph name="thoThong-thai" format="2">
  <advance width="544"/>
  <unicode hex="0E18"/>
  <anchor x="446" y="0" name="bottom"/>
  <anchor x="472" y="506" name="top"/>
  <outline>
    <contour>
      <point x="273" y="-10" type="curve" smooth="yes"/>
      <point x="433" y="-10"/>
      <point x="496" y="55"/>
      <point x="496" y="154" type="curve" smooth="yes"/>
      <point x="496" y="274"/>
      <point x="400" y="303"/>
      <point x="293" y="332" type="curve" smooth="yes"/>
      <point x="205" y="356"/>
      <point x="152" y="367"/>
      <point x="152" y="406" type="curve" smooth="yes"/>
      <point x="152" y="442"/>
      <point x="195" y="455"/>
      <point x="264" y="455" type="curve" smooth="yes"/>
      <point x="349" y="455"/>
      <point x="425" y="435"/>
      <point x="460" y="418" type="curve"/>
      <point x="460" y="496" type="line"/>
      <point x="429" y="510"/>
      <point x="365" y="527"/>
      <point x="273" y="527" type="curve" smooth="yes"/>
      <point x="126" y="527"/>
      <point x="63" y="482"/>
      <point x="63" y="399" type="curve" smooth="yes"/>
      <point x="63" y="322"/>
      <point x="119" y="298"/>
      <point x="242" y="264" type="curve" smooth="yes"/>
      <point x="351" y="234"/>
      <point x="408" y="224"/>
      <point x="408" y="153" type="curve" smooth="yes"/>
      <point x="408" y="77"/>
      <point x="342" y="61"/>
      <point x="274" y="61" type="curve" smooth="yes"/>
      <point x="227" y="61"/>
      <point x="182" y="69"/>
      <point x="164" y="78" type="curve"/>
      <point x="164" y="239" type="line"/>
      <point x="81" y="239" type="line"/>
      <point x="81" y="24" type="line"/>
      <point x="126" y="7"/>
      <point x="189" y="-10"/>
    </contour>
  </outline>
</glyph>
<glyph name="noNu-thai" format="2">
  <advance width="613"/>
  <unicode hex="0E19"/>
  <note>
uni0E19
</note>
  <anchor x="524" y="0" name="bottom"/>
  <anchor x="524" y="506" name="top"/>
  <outline>
    <contour>
      <point x="270" y="-9" type="curve" smooth="yes"/>
      <point x="357" y="-9"/>
      <point x="418" y="26"/>
      <point x="442" y="77" type="curve"/>
      <point x="447" y="77" type="line"/>
      <point x="451" y="0" type="line"/>
      <point x="525" y="0" type="line"/>
      <point x="525" y="517" type="line"/>
      <point x="436" y="517" type="line"/>
      <point x="436" y="222" type="line" smooth="yes"/>
      <point x="436" y="126"/>
      <point x="382" y="66"/>
      <point x="289" y="66" type="curve" smooth="yes"/>
      <point x="211" y="66"/>
      <point x="170" y="105"/>
      <point x="170" y="180" type="curve" smooth="yes"/>
      <point x="170" y="517" type="line"/>
      <point x="81" y="517" type="line"/>
      <point x="81" y="173" type="line" smooth="yes"/>
      <point x="81" y="47"/>
      <point x="152" y="-9"/>
    </contour>
  </outline>
</glyph>
<glyph name="boBaimai-thai" format="2">
  <advance width="604"/>
  <unicode hex="0E1A"/>
  <note>
uni0E1A
</note>
  <anchor x="502" y="0" name="bottom"/>
  <anchor x="522" y="506" name="top"/>
  <outline>
    <contour>
      <point x="301" y="-10" type="curve" smooth="yes"/>
      <point x="459" y="-10"/>
      <point x="523" y="61"/>
      <point x="523" y="189" type="curve" smooth="yes"/>
      <point x="523" y="517" type="line"/>
      <point x="434" y="517" type="line"/>
      <point x="434" y="187" type="line" smooth="yes"/>
      <point x="434" y="105"/>
      <point x="392" y="64"/>
      <point x="301" y="64" type="curve" smooth="yes"/>
      <point x="212" y="64"/>
      <point x="170" y="105"/>
      <point x="170" y="187" type="curve" smooth="yes"/>
      <point x="170" y="517" type="line"/>
      <point x="81" y="517" type="line"/>
      <point x="81" y="189" type="line" smooth="yes"/>
      <point x="81" y="61"/>
      <point x="144" y="-10"/>
    </contour>
  </outline>
</glyph>
<glyph name="poPla-thai" format="2">
  <advance width="605"/>
  <unicode hex="0E1B"/>
  <note>
uni0E1B
</note>
  <anchor x="502" y="0" name="bottom"/>
  <anchor x="378" y="506" name="top"/>
  <outline>
    <contour>
      <point x="301" y="-10" type="curve" smooth="yes"/>
      <point x="459" y="-10"/>
      <point x="523" y="61"/>
      <point x="523" y="189" type="curve" smooth="yes"/>
      <point x="523" y="703" type="line"/>
      <point x="434" y="703" type="line"/>
      <point x="434" y="187" type="line" smooth="yes"/>
      <point x="434" y="105"/>
      <point x="392" y="64"/>
      <point x="301" y="64" type="curve" smooth="yes"/>
      <point x="212" y="64"/>
      <point x="170" y="105"/>
      <point x="170" y="187" type="curve" smooth="yes"/>
      <point x="170" y="517" type="line"/>
      <point x="81" y="517" type="line"/>
      <point x="81" y="189" type="line" smooth="yes"/>
      <point x="81" y="61"/>
      <point x="144" y="-10"/>
    </contour>
  </outline>
</glyph>
<glyph name="foFa-thai" format="2">
  <advance width="652"/>
  <unicode hex="0E1D"/>
  <anchor x="560" y="0" name="bottom"/>
  <anchor x="404" y="506" name="top"/>
  <outline>
    <contour>
      <point x="86" y="0" type="line"/>
      <point x="165" y="0" type="line"/>
      <point x="322" y="244" type="line"/>
      <point x="326" y="244" type="line"/>
      <point x="481" y="0" type="line"/>
      <point x="561" y="0" type="line"/>
      <point x="561" y="703" type="line"/>
      <point x="473" y="703" type="line"/>
      <point x="473" y="271" type="line" smooth="yes"/>
      <point x="473" y="232"/>
      <point x="473" y="194"/>
      <point x="477" y="134" type="curve"/>
      <point x="473" y="134" type="line"/>
      <point x="454" y="174"/>
      <point x="436" y="205"/>
      <point x="404" y="255" type="curve" smooth="yes"/>
      <point x="351" y="338" type="line"/>
      <point x="295" y="338" type="line"/>
      <point x="242" y="255" type="line" smooth="yes"/>
      <point x="222" y="223"/>
      <point x="199" y="189"/>
      <point x="173" y="134" type="curve"/>
      <point x="169" y="134" type="line"/>
      <point x="173" y="194"/>
      <point x="173" y="232"/>
      <point x="173" y="271" type="curve" smooth="yes"/>
      <point x="173" y="412" type="line" smooth="yes"/>
      <point x="173" y="439"/>
      <point x="184" y="455"/>
      <point x="217" y="455" type="curve" smooth="yes"/>
      <point x="225" y="455"/>
      <point x="240" y="453"/>
      <point x="253" y="449" type="curve"/>
      <point x="264" y="515" type="line"/>
      <point x="247" y="523"/>
      <point x="220" y="527"/>
      <point x="205" y="527" type="curve" smooth="yes"/>
      <point x="143" y="527"/>
      <point x="86" y="505"/>
      <point x="86" y="424" type="curve" smooth="yes"/>
    </contour>
  </outline>
</glyph>
<glyph name="phoPhan-thai" format="2">
  <advance width="695"/>
  <unicode hex="0E1E"/>
  <note>
uni0E1E
</note>
  <anchor x="555" y="0" name="bottom"/>
  <anchor x="612" y="506" name="top"/>
  <outline>
    <contour>
      <point x="140" y="0" type="line"/>
      <point x="227" y="0" type="line"/>
      <point x="317" y="275" type="line" smooth="yes"/>
      <point x="327" y="307"/>
      <point x="337" y="338"/>
      <point x="346" y="392" type="curve"/>
      <point x="350" y="392" type="line"/>
      <point x="358" y="338"/>
      <point x="365" y="307"/>
      <point x="376" y="275" type="curve" smooth="yes"/>
      <point x="468" y="0" type="line"/>
      <point x="555" y="0" type="line"/>
      <point x="654" y="517" type="line"/>
      <point x="563" y="517" type="line"/>
      <point x="523" y="296" type="line" smooth="yes"/>
      <point x="516" y="260"/>
      <point x="510" y="203"/>
      <point x="502" y="124" type="curve"/>
      <point x="498" y="124" type="line"/>
      <point x="480" y="204"/>
      <point x="463" y="260"/>
      <point x="451" y="299" type="curve" smooth="yes"/>
      <point x="383" y="517" type="line"/>
      <point x="310" y="517" type="line"/>
      <point x="243" y="299" type="line" smooth="yes"/>
      <point x="231" y="260"/>
      <point x="213" y="204"/>
      <point x="196" y="124" type="curve"/>
      <point x="193" y="124" type="line"/>
      <point x="183" y="203"/>
      <point x="177" y="260"/>
      <point x="171" y="296" type="curve" smooth="yes"/>
      <point x="132" y="517" type="line"/>
      <point x="41" y="517" type="line"/>
    </contour>
  </outline>
</glyph>
<glyph name="foFan-thai" format="2">
  <advance width="682"/>
  <unicode hex="0E1F"/>
  <anchor x="550" y="0" name="bottom"/>
  <anchor x="477" y="506" name="top"/>
  <outline>
    <contour>
      <point x="136" y="0" type="line"/>
      <point x="223" y="0" type="line"/>
      <point x="314" y="275" type="line" smooth="yes"/>
      <point x="324" y="307"/>
      <point x="332" y="338"/>
      <point x="342" y="392" type="curve"/>
      <point x="346" y="392" type="line"/>
      <point x="355" y="338"/>
      <point x="363" y="303"/>
      <point x="372" y="275" type="curve" smooth="yes"/>
      <point x="463" y="0" type="line"/>
      <point x="551" y="0" type="line"/>
      <point x="661" y="703" type="line"/>
      <point x="573" y="703" type="line"/>
      <point x="516" y="296" type="line" smooth="yes"/>
      <point x="511" y="260"/>
      <point x="505" y="200"/>
      <point x="497" y="124" type="curve"/>
      <point x="493" y="124" type="line"/>
      <point x="482" y="177"/>
      <point x="467" y="235"/>
      <point x="447" y="299" type="curve" smooth="yes"/>
      <point x="379" y="517" type="line"/>
      <point x="307" y="517" type="line"/>
      <point x="239" y="299" type="line" smooth="yes"/>
      <point x="219" y="235"/>
      <point x="203" y="177"/>
      <point x="193" y="124" type="curve"/>
      <point x="188" y="124" type="line"/>
      <point x="180" y="193"/>
      <point x="170" y="278"/>
      <point x="167" y="296" type="curve" smooth="yes"/>
      <point x="132" y="517" type="line"/>
      <point x="41" y="517" type="line"/>
    </contour>
  </outline>
</glyph>
<glyph name="phoSamphao-thai" format="2">
  <advance width="603"/>
  <unicode hex="0E20"/>
  <anchor x="522" y="0" name="bottom"/>
  <anchor x="511" y="506" name="top"/>
  <outline>
    <contour>
      <point x="88" y="-9" type="curve" smooth="yes"/>
      <point x="140" y="-9"/>
      <point x="181" y="12"/>
      <point x="181" y="90" type="curve" smooth="yes"/>
      <point x="181" y="180" type="line" smooth="yes"/>
      <point x="181" y="246"/>
      <point x="214" y="274"/>
      <point x="264" y="274" type="curve"/>
      <point x="272" y="320" type="line"/>
      <point x="158" y="370" type="line"/>
      <point x="158" y="418"/>
      <point x="209" y="453"/>
      <point x="292" y="453" type="curve" smooth="yes"/>
      <point x="370" y="453"/>
      <point x="433" y="420"/>
      <point x="433" y="338" type="curve" smooth="yes"/>
      <point x="433" y="0" type="line"/>
      <point x="522" y="0" type="line"/>
      <point x="522" y="347" type="line" smooth="yes"/>
      <point x="522" y="473"/>
      <point x="416" y="527"/>
      <point x="293" y="527" type="curve" smooth="yes"/>
      <point x="150" y="527"/>
      <point x="67" y="454"/>
      <point x="67" y="375" type="curve" smooth="yes"/>
      <point x="67" y="344" type="line"/>
      <point x="182" y="305" type="line"/>
      <point x="181" y="302" type="line"/>
      <point x="124" y="289"/>
      <point x="92" y="259"/>
      <point x="92" y="183" type="curve" smooth="yes"/>
      <point x="92" y="97" type="line" smooth="yes"/>
      <point x="92" y="71"/>
      <point x="83" y="60"/>
      <point x="62" y="60" type="curve" smooth="yes"/>
      <point x="51" y="60"/>
      <point x="38" y="63"/>
      <point x="29" y="65" type="curve"/>
      <point x="19" y="5" type="line"/>
      <point x="42" y="-5"/>
      <point x="64" y="-9"/>
    </contour>
  </outline>
</glyph>
<glyph name="moMa-thai" format="2">
  <advance width="614"/>
  <unicode hex="0E21"/>
  <note>
uni0E21
</note>
  <anchor x="511" y="0" name="bottom"/>
  <anchor x="533" y="506" name="top"/>
  <outline>
    <contour>
      <point x="345" y="-9" type="curve" smooth="yes"/>
      <point x="463" y="-9"/>
      <point x="533" y="47"/>
      <point x="533" y="172" type="curve" smooth="yes"/>
      <point x="533" y="517" type="line"/>
      <point x="444" y="517" type="line"/>
      <point x="444" y="180" type="line" smooth="yes"/>
      <point x="444" y="105"/>
      <point x="405" y="66"/>
      <point x="327" y="66" type="curve" smooth="yes"/>
      <point x="232" y="66"/>
      <point x="178" y="126"/>
      <point x="178" y="222" type="curve" smooth="yes"/>
      <point x="178" y="517" type="line"/>
      <point x="89" y="517" type="line"/>
      <point x="89" y="0" type="line"/>
      <point x="162" y="0" type="line"/>
      <point x="167" y="82" type="line"/>
      <point x="171" y="82" type="line"/>
      <point x="194" y="25"/>
      <point x="259" y="-9"/>
    </contour>
  </outline>
</glyph>
<glyph name="yoYak-thai" format="2">
  <advance width="594"/>
  <unicode hex="0E22"/>
  <note>
uni0E22
</note>
  <anchor x="491" y="0" name="bottom"/>
  <anchor x="513" y="506" name="top"/>
  <outline>
    <contour>
      <point x="292" y="-9" type="curve" smooth="yes"/>
      <point x="444" y="-9"/>
      <point x="513" y="46"/>
      <point x="513" y="177" type="curve" smooth="yes"/>
      <point x="513" y="517" type="line"/>
      <point x="424" y="517" type="line"/>
      <point x="424" y="172" type="line" smooth="yes"/>
      <point x="424" y="104"/>
      <point x="393" y="63"/>
      <point x="292" y="63" type="curve" smooth="yes"/>
      <point x="189" y="63"/>
      <point x="161" y="107"/>
      <point x="161" y="160" type="curve" smooth="yes"/>
      <point x="161" y="221"/>
      <point x="198" y="245"/>
      <point x="278" y="245" type="curve" smooth="yes"/>
      <point x="297" y="245" type="line"/>
      <point x="297" y="309" type="line"/>
      <point x="278" y="309" type="line" smooth="yes"/>
      <point x="218" y="309"/>
      <point x="158" y="322"/>
      <point x="158" y="387" type="curve" smooth="yes"/>
      <point x="158" y="426"/>
      <point x="184" y="452"/>
      <point x="240" y="452" type="curve" smooth="yes"/>
      <point x="265" y="452"/>
      <point x="290" y="446"/>
      <point x="305" y="442" type="curve"/>
      <point x="321" y="510" type="line"/>
      <point x="302" y="519"/>
      <point x="263" y="524"/>
      <point x="231" y="524" type="curve" smooth="yes"/>
      <point x="112" y="524"/>
      <point x="68" y="460"/>
      <point x="68" y="394" type="curve" smooth="yes"/>
      <point x="68" y="322"/>
      <point x="120" y="290"/>
      <point x="161" y="279" type="curve"/>
      <point x="161" y="275" type="line"/>
      <point x="117" y="268"/>
      <point x="71" y="238"/>
      <point x="71" y="152" type="curve" smooth="yes"/>
      <point x="71" y="54"/>
      <point x="130" y="-9"/>
    </contour>
  </outline>
</glyph>
<glyph name="roRua-thai" format="2">
  <advance width="488"/>
  <unicode hex="0E23"/>
  <note>
uni0E23
</note>
  <anchor x="399" y="0" name="bottom"/>
  <anchor x="448" y="506" name="top"/>
  <outline>
    <contour>
      <point x="235" y="-10" type="curve" smooth="yes"/>
      <point x="393" y="-10"/>
      <point x="449" y="63"/>
      <point x="449" y="142" type="curve" smooth="yes"/>
      <point x="449" y="235"/>
      <point x="370" y="270"/>
      <point x="274" y="301" type="curve" smooth="yes"/>
      <point x="169" y="335"/>
      <point x="136" y="353"/>
      <point x="136" y="393" type="curve" smooth="yes"/>
      <point x="136" y="426"/>
      <point x="168" y="454"/>
      <point x="258" y="454" type="curve" smooth="yes"/>
      <point x="321" y="454"/>
      <point x="384" y="437"/>
      <point x="418" y="422" type="curve"/>
      <point x="418" y="497" type="line"/>
      <point x="386" y="515"/>
      <point x="325" y="527"/>
      <point x="261" y="527" type="curve" smooth="yes"/>
      <point x="112" y="527"/>
      <point x="47" y="470"/>
      <point x="47" y="390" type="curve" smooth="yes"/>
      <point x="47" y="300"/>
      <point x="115" y="264"/>
      <point x="242" y="226" type="curve" smooth="yes"/>
      <point x="324" y="202"/>
      <point x="360" y="176"/>
      <point x="360" y="135" type="curve" smooth="yes"/>
      <point x="360" y="88"/>
      <point x="308" y="64"/>
      <point x="237" y="64" type="curve" smooth="yes"/>
      <point x="170" y="64"/>
      <point x="108" y="83"/>
      <point x="66" y="100" type="curve"/>
      <point x="40" y="28" type="line"/>
      <point x="87" y="7"/>
      <point x="156" y="-10"/>
    </contour>
  </outline>
</glyph>
<glyph name="ru-thai" format="2">
  <advance width="602"/>
  <unicode hex="0E24"/>
  <anchor x="521" y="-179" name="bottom"/>
  <anchor x="504" y="506" name="top"/>
  <outline>
    <contour>
      <point x="432" y="-191" type="line"/>
      <point x="521" y="-191" type="line"/>
      <point x="521" y="94" type="line"/>
      <point x="432" y="94" type="line"/>
    </contour>
    <component base="thoThung-thai"/>
  </outline>
</glyph>
<glyph name="loLing-thai" format="2">
  <advance width="571"/>
  <unicode hex="0E25"/>
  <anchor x="490" y="0" name="bottom"/>
  <anchor x="475" y="506" name="top"/>
  <outline>
    <contour>
      <point x="402" y="0" type="line"/>
      <point x="490" y="0" type="line"/>
      <point x="490" y="348" type="line" smooth="yes"/>
      <point x="490" y="472"/>
      <point x="422" y="527"/>
      <point x="282" y="527" type="curve" smooth="yes"/>
      <point x="199" y="527"/>
      <point x="130" y="507"/>
      <point x="92" y="488" type="curve"/>
      <point x="92" y="406" type="line"/>
      <point x="146" y="436"/>
      <point x="207" y="454"/>
      <point x="274" y="454" type="curve" smooth="yes"/>
      <point x="366" y="454"/>
      <point x="402" y="423"/>
      <point x="402" y="344" type="curve" smooth="yes"/>
    </contour>
    <contour>
      <point x="230" y="-9" type="curve" smooth="yes"/>
      <point x="263" y="-9"/>
      <point x="293" y="-6"/>
      <point x="319" y="4" type="curve"/>
      <point x="305" y="69" type="line"/>
      <point x="288" y="64"/>
      <point x="269" y="61"/>
      <point x="247" y="61" type="curve" smooth="yes"/>
      <point x="179" y="61"/>
      <point x="139" y="86"/>
      <point x="139" y="141" type="curve" smooth="yes"/>
      <point x="139" y="199"/>
      <point x="182" y="228"/>
      <point x="318" y="237" type="curve" smooth="yes"/>
      <point x="420" y="244" type="line"/>
      <point x="420" y="317" type="line"/>
      <point x="306" y="310" type="line" smooth="yes"/>
      <point x="124" y="299"/>
      <point x="49" y="242"/>
      <point x="49" y="139" type="curve" smooth="yes"/>
      <point x="49" y="43"/>
      <point x="113" y="-9"/>
    </contour>
  </outline>
</glyph>
<glyph name="lu-thai" format="2">
  <advance width="603"/>
  <unicode hex="0E26"/>
  <anchor x="522" y="-179" name="bottom"/>
  <anchor x="510" y="506" name="top"/>
  <outline>
    <contour>
      <point x="433" y="-191" type="line"/>
      <point x="522" y="-191" type="line"/>
      <point x="522" y="94" type="line"/>
      <point x="433" y="94" type="line"/>
    </contour>
    <component base="phoSamphao-thai"/>
  </outline>
</glyph>
<glyph name="woWaen-thai" format="2">
  <advance width="492"/>
  <unicode hex="0E27"/>
  <anchor x="361" y="0" name="bottom"/>
  <anchor x="413" y="506" name="top"/>
  <outline>
    <contour>
      <point x="191" y="-10" type="curve" smooth="yes"/>
      <point x="350" y="-10"/>
      <point x="429" y="93"/>
      <point x="429" y="261" type="curve" smooth="yes"/>
      <point x="429" y="421"/>
      <point x="355" y="527"/>
      <point x="175" y="527" type="curve" smooth="yes"/>
      <point x="128" y="527"/>
      <point x="80" y="520"/>
      <point x="42" y="501" type="curve"/>
      <point x="42" y="426" type="line"/>
      <point x="75" y="444"/>
      <point x="122" y="453"/>
      <point x="165" y="453" type="curve" smooth="yes"/>
      <point x="282" y="453"/>
      <point x="338" y="386"/>
      <point x="338" y="261" type="curve" smooth="yes"/>
      <point x="338" y="132"/>
      <point x="280" y="64"/>
      <point x="181" y="64" type="curve" smooth="yes"/>
      <point x="132" y="64"/>
      <point x="95" y="78"/>
      <point x="66" y="94" type="curve"/>
      <point x="38" y="27" type="line"/>
      <point x="93" y="-1"/>
      <point x="139" y="-10"/>
    </contour>
  </outline>
</glyph>
<glyph name="soSala-thai" format="2">
  <advance width="628"/>
  <unicode hex="0E28"/>
  <anchor x="523" y="0" name="bottom"/>
  <anchor x="528" y="506" name="top"/>
  <outline>
    <contour>
      <point x="81" y="0" type="line"/>
      <point x="170" y="0" type="line"/>
      <point x="170" y="97" type="line" smooth="yes"/>
      <point x="170" y="160"/>
      <point x="196" y="213"/>
      <point x="317" y="213" type="curve" smooth="yes"/>
      <point x="350" y="213" type="line"/>
      <point x="350" y="285" type="line"/>
      <point x="317" y="285" type="line" smooth="yes"/>
      <point x="240" y="285"/>
      <point x="203" y="274"/>
      <point x="173" y="225" type="curve"/>
      <point x="170" y="226" type="line"/>
      <point x="170" y="328" type="line" smooth="yes"/>
      <point x="170" y="411"/>
      <point x="216" y="453"/>
      <point x="307" y="453" type="curve" smooth="yes"/>
      <point x="397" y="453"/>
      <point x="444" y="411"/>
      <point x="444" y="328" type="curve" smooth="yes"/>
      <point x="444" y="0" type="line"/>
      <point x="533" y="0" type="line"/>
      <point x="533" y="328" type="line" smooth="yes"/>
      <point x="533" y="396"/>
      <point x="514" y="448"/>
      <point x="466" y="470" type="curve"/>
      <point x="435" y="512"/>
      <point x="381" y="527"/>
      <point x="307" y="527" type="curve" smooth="yes"/>
      <point x="149" y="527"/>
      <point x="81" y="456"/>
      <point x="81" y="328" type="curve" smooth="yes"/>
    </contour>
    <contour>
      <point x="466" y="442" type="line"/>
      <point x="526" y="453"/>
      <point x="575" y="492"/>
      <point x="575" y="551" type="curve"/>
      <point x="488" y="551" type="line"/>
      <point x="488" y="514"/>
      <point x="450" y="494"/>
      <point x="416" y="488" type="curve"/>
    </contour>
  </outline>
</glyph>
<glyph name="soRusi-thai" format="2">
  <advance width="640"/>
  <unicode hex="0E29"/>
  <anchor x="506" y="0" name="bottom"/>
  <anchor x="537" y="506" name="top"/>
  <outline>
    <contour>
      <point x="309" y="-10" type="curve" smooth="yes"/>
      <point x="474" y="-10"/>
      <point x="537" y="64"/>
      <point x="537" y="193" type="curve" smooth="yes"/>
      <point x="537" y="517" type="line"/>
      <point x="448" y="517" type="line"/>
      <point x="448" y="192" type="line" smooth="yes"/>
      <point x="448" y="105"/>
      <point x="406" y="64"/>
      <point x="309" y="64" type="curve" smooth="yes"/>
      <point x="212" y="64"/>
      <point x="170" y="105"/>
      <point x="170" y="192" type="curve" smooth="yes"/>
      <point x="170" y="517" type="line"/>
      <point x="81" y="517" type="line"/>
      <point x="81" y="193" type="line" smooth="yes"/>
      <point x="81" y="64"/>
      <point x="144" y="-10"/>
    </contour>
    <contour>
      <point x="370" y="213" type="curve" smooth="yes"/>
      <point x="601" y="213" type="line"/>
      <point x="601" y="279" type="line"/>
      <point x="374" y="279" type="line" smooth="yes"/>
      <point x="349" y="279"/>
      <point x="340" y="295"/>
      <point x="340" y="312" type="curve" smooth="yes"/>
      <point x="340" y="322"/>
      <point x="343" y="333"/>
      <point x="346" y="339" type="curve"/>
      <point x="274" y="352" type="line"/>
      <point x="264" y="338"/>
      <point x="259" y="315"/>
      <point x="259" y="296" type="curve" smooth="yes"/>
      <point x="259" y="254"/>
      <point x="285" y="213"/>
    </contour>
  </outline>
</glyph>
<glyph name="soSua-thai" format="2">
  <advance width="572"/>
  <unicode hex="0E2A"/>
  <note>
uni0E2A
</note>
  <anchor x="490" y="0" name="bottom"/>
  <anchor x="490" y="506" name="top"/>
  <outline>
    <contour>
      <point x="402" y="0" type="line"/>
      <point x="490" y="0" type="line"/>
      <point x="490" y="348" type="line" smooth="yes"/>
      <point x="490" y="409"/>
      <point x="474" y="454"/>
      <point x="428" y="473" type="curve"/>
      <point x="404" y="514"/>
      <point x="352" y="527"/>
      <point x="282" y="527" type="curve" smooth="yes"/>
      <point x="199" y="527"/>
      <point x="130" y="507"/>
      <point x="92" y="488" type="curve"/>
      <point x="92" y="406" type="line"/>
      <point x="146" y="436"/>
      <point x="207" y="454"/>
      <point x="274" y="454" type="curve" smooth="yes"/>
      <point x="366" y="454"/>
      <point x="402" y="423"/>
      <point x="402" y="344" type="curve" smooth="yes"/>
    </contour>
    <contour>
      <point x="230" y="-9" type="curve" smooth="yes"/>
      <point x="263" y="-9"/>
      <point x="293" y="-6"/>
      <point x="319" y="4" type="curve"/>
      <point x="305" y="69" type="line"/>
      <point x="288" y="64"/>
      <point x="269" y="61"/>
      <point x="247" y="61" type="curve" smooth="yes"/>
      <point x="179" y="61"/>
      <point x="139" y="86"/>
      <point x="139" y="141" type="curve" smooth="yes"/>
      <point x="139" y="199"/>
      <point x="182" y="228"/>
      <point x="318" y="237" type="curve" smooth="yes"/>
      <point x="420" y="244" type="line"/>
      <point x="420" y="317" type="line"/>
      <point x="306" y="310" type="line" smooth="yes"/>
      <point x="124" y="299"/>
      <point x="49" y="242"/>
      <point x="49" y="139" type="curve" smooth="yes"/>
      <point x="49" y="43"/>
      <point x="113" y="-9"/>
    </contour>
    <contour>
      <point x="425" y="442" type="line"/>
      <point x="485" y="453"/>
      <point x="534" y="492"/>
      <point x="534" y="551" type="curve"/>
      <point x="447" y="551" type="line"/>
      <point x="447" y="514"/>
      <point x="409" y="494"/>
      <point x="375" y="488" type="curve"/>
    </contour>
  </outline>
</glyph>
<glyph name="hoHip-thai" format="2">
  <advance width="587"/>
  <unicode hex="0E2B"/>
  <note>
uni0E2B
</note>
  <anchor x="518" y="0" name="bottom"/>
  <anchor x="521" y="506" name="top"/>
  <outline>
    <contour>
      <point x="89" y="0" type="line"/>
      <point x="178" y="0" type="line"/>
      <point x="178" y="191" type="line"/>
      <point x="513" y="514" type="line"/>
      <point x="513" y="517" type="line"/>
      <point x="409" y="517" type="line"/>
      <point x="181" y="296" type="line"/>
      <point x="178" y="296" type="line"/>
      <point x="178" y="517" type="line"/>
      <point x="89" y="517" type="line"/>
    </contour>
    <contour>
      <point x="429" y="0" type="line"/>
      <point x="518" y="0" type="line"/>
      <point x="518" y="185" type="line" smooth="yes"/>
      <point x="518" y="294"/>
      <point x="451" y="362"/>
      <point x="326" y="362" type="curve"/>
      <point x="274" y="297" type="line"/>
      <point x="385" y="297"/>
      <point x="429" y="254"/>
      <point x="429" y="181" type="curve" smooth="yes"/>
    </contour>
  </outline>
</glyph>
<glyph name="loChula-thai" format="2">
  <advance width="668"/>
  <unicode hex="0E2C"/>
  <anchor x="538" y="0" name="bottom"/>
  <outline>
    <contour>
      <point x="126" y="0" type="line"/>
      <point x="212" y="0" type="line"/>
      <point x="290" y="202" type="line" smooth="yes"/>
      <point x="307" y="248"/>
      <point x="317" y="283"/>
      <point x="329" y="345" type="curve"/>
      <point x="333" y="345" type="line"/>
      <point x="345" y="287"/>
      <point x="355" y="256"/>
      <point x="375" y="203" type="curve" smooth="yes"/>
      <point x="451" y="0" type="line"/>
      <point x="538" y="0" type="line"/>
      <point x="612" y="395" type="line" smooth="yes"/>
      <point x="620" y="440"/>
      <point x="611" y="500"/>
      <point x="552" y="525" type="curve"/>
      <point x="552" y="528" type="line"/>
      <point x="632" y="543"/>
      <point x="661" y="597"/>
      <point x="661" y="669" type="curve" smooth="yes"/>
      <point x="661" y="674" type="line"/>
      <point x="571" y="674" type="line"/>
      <point x="571" y="669" type="line" smooth="yes"/>
      <point x="571" y="607"/>
      <point x="544" y="569"/>
      <point x="450" y="569" type="curve" smooth="yes"/>
      <point x="369" y="569" type="line"/>
      <point x="369" y="505" type="line"/>
      <point x="415" y="505" type="line" smooth="yes"/>
      <point x="506" y="505"/>
      <point x="542" y="470"/>
      <point x="525" y="385" type="curve" smooth="yes"/>
      <point x="503" y="275" type="line" smooth="yes"/>
      <point x="492" y="220"/>
      <point x="486" y="159"/>
      <point x="486" y="111" type="curve"/>
      <point x="481" y="111" type="line"/>
      <point x="461" y="184"/>
      <point x="448" y="221"/>
      <point x="431" y="263" type="curve" smooth="yes"/>
      <point x="365" y="428" type="line"/>
      <point x="298" y="428" type="line"/>
      <point x="233" y="263" type="line" smooth="yes"/>
      <point x="216" y="219"/>
      <point x="204" y="184"/>
      <point x="183" y="111" type="curve"/>
      <point x="179" y="111" type="line"/>
      <point x="177" y="184"/>
      <point x="168" y="239"/>
      <point x="163" y="276" type="curve" smooth="yes"/>
      <point x="131" y="517" type="line"/>
      <point x="41" y="517" type="line"/>
    </contour>
  </outline>
</glyph>
<glyph name="oAng-thai" format="2">
  <advance width="574"/>
  <unicode hex="0E2D"/>
  <note>
uni0E2D
</note>
  <anchor x="454" y="0" name="bottom"/>
  <anchor x="475" y="506" name="top"/>
  <outline>
    <contour>
      <point x="275" y="-10" type="curve" smooth="yes"/>
      <point x="448" y="-10"/>
      <point x="511" y="87"/>
      <point x="511" y="255" type="curve" smooth="yes"/>
      <point x="511" y="420"/>
      <point x="440" y="527"/>
      <point x="264" y="527" type="curve" smooth="yes"/>
      <point x="187" y="527"/>
      <point x="118" y="510"/>
      <point x="78" y="490" type="curve"/>
      <point x="78" y="408" type="line"/>
      <point x="131" y="437"/>
      <point x="189" y="453"/>
      <point x="253" y="453" type="curve" smooth="yes"/>
      <point x="376" y="453"/>
      <point x="420" y="391"/>
      <point x="420" y="254" type="curve" smooth="yes"/>
      <point x="420" y="99"/>
      <point x="362" y="62"/>
      <point x="273" y="62" type="curve" smooth="yes"/>
      <point x="191" y="62"/>
      <point x="149" y="94"/>
      <point x="149" y="210" type="curve" smooth="yes"/>
      <point x="149" y="229" type="line"/>
      <point x="275" y="229" type="line"/>
      <point x="275" y="297" type="line"/>
      <point x="65" y="297" type="line"/>
      <point x="62" y="268"/>
      <point x="60" y="237"/>
      <point x="60" y="211" type="curve" smooth="yes"/>
      <point x="60" y="59"/>
      <point x="131" y="-10"/>
    </contour>
  </outline>
</glyph>
<glyph name="hoNokhuk-thai" format="2">
  <advance width="560"/>
  <unicode hex="0E2E"/>
  <anchor x="454" y="0" name="bottom"/>
  <anchor x="468" y="506" name="top"/>
  <outline>
    <contour>
      <point x="275" y="-10" type="curve" smooth="yes"/>
      <point x="448" y="-10"/>
      <point x="511" y="88"/>
      <point x="511" y="253" type="curve" smooth="yes"/>
      <point x="511" y="353"/>
      <point x="488" y="430"/>
      <point x="428" y="466" type="curve"/>
      <point x="390" y="510"/>
      <point x="335" y="527"/>
      <point x="264" y="527" type="curve" smooth="yes"/>
      <point x="187" y="527"/>
      <point x="118" y="510"/>
      <point x="78" y="490" type="curve"/>
      <point x="78" y="408" type="line"/>
      <point x="131" y="438"/>
      <point x="189" y="453"/>
      <point x="253" y="453" type="curve" smooth="yes"/>
      <point x="375" y="453"/>
      <point x="420" y="391"/>
      <point x="420" y="254" type="curve" smooth="yes"/>
      <point x="420" y="99"/>
      <point x="362" y="62"/>
      <point x="273" y="62" type="curve" smooth="yes"/>
      <point x="191" y="62"/>
      <point x="149" y="94"/>
      <point x="149" y="210" type="curve" smooth="yes"/>
      <point x="149" y="229" type="line"/>
      <point x="275" y="229" type="line"/>
      <point x="275" y="297" type="line"/>
      <point x="65" y="297" type="line"/>
      <point x="62" y="268"/>
      <point x="60" y="237"/>
      <point x="60" y="211" type="curve" smooth="yes"/>
      <point x="60" y="59"/>
      <point x="131" y="-10"/>
    </contour>
    <contour>
      <point x="426" y="442" type="line"/>
      <point x="486" y="453"/>
      <point x="535" y="492"/>
      <point x="535" y="551" type="curve"/>
      <point x="448" y="551" type="line"/>
      <point x="448" y="514"/>
      <point x="410" y="494"/>
      <point x="376" y="488" type="curve"/>
    </contour>
  </outline>
</glyph>
<glyph name="paiyannoi-thai" format="2">
  <advance width="519"/>
  <unicode hex="0E2F"/>
  <outline>
    <contour>
      <point x="332" y="0" type="line"/>
      <point x="421" y="0" type="line"/>
      <point x="421" y="517" type="line"/>
      <point x="332" y="517" type="line"/>
      <point x="332" y="402" type="line" smooth="yes"/>
      <point x="332" y="316"/>
      <point x="297" y="280"/>
      <point x="215" y="280" type="curve" smooth="yes"/>
      <point x="146" y="280"/>
      <point x="107" y="313"/>
      <point x="107" y="373" type="curve" smooth="yes"/>
      <point x="107" y="430"/>
      <point x="143" y="456"/>
      <point x="187" y="456" type="curve" smooth="yes"/>
      <point x="196" y="456"/>
      <point x="209" y="455"/>
      <point x="227" y="450" type="curve"/>
      <point x="240" y="515" type="line"/>
      <point x="214" y="525"/>
      <point x="190" y="527"/>
      <point x="171" y="527" type="curve" smooth="yes"/>
      <point x="76" y="527"/>
      <point x="18" y="469"/>
      <point x="18" y="376" type="curve" smooth="yes"/>
      <point x="18" y="265"/>
      <point x="95" y="209"/>
      <point x="203" y="209" type="curve" smooth="yes"/>
      <point x="294" y="209"/>
      <point x="356" y="246"/>
      <point x="362" y="316" type="curve"/>
      <point x="332" y="312" type="line"/>
    </contour>
  </outline>
</glyph>
<glyph name="saraA-thai" format="2">
  <advance width="338"/>
  <unicode hex="0E30"/>
  <outline>
    <contour>
      <point x="153" y="344" type="curve" smooth="yes"/>
      <point x="299" y="344" type="line"/>
      <point x="299" y="414" type="line"/>
      <point x="156" y="414" type="line" smooth="yes"/>
      <point x="131" y="414"/>
      <point x="123" y="427"/>
      <point x="123" y="444" type="curve" smooth="yes"/>
      <point x="123" y="456"/>
      <point x="127" y="469"/>
      <point x="130" y="476" type="curve"/>
      <point x="55" y="488" type="line"/>
      <point x="45" y="473"/>
      <point x="39" y="450"/>
      <point x="39" y="430" type="curve" smooth="yes"/>
      <point x="39" y="386"/>
      <point x="70" y="344"/>
    </contour>
    <contour>
      <point x="153" y="64" type="curve" smooth="yes"/>
      <point x="299" y="64" type="line"/>
      <point x="299" y="134" type="line"/>
      <point x="156" y="134" type="line" smooth="yes"/>
      <point x="131" y="134"/>
      <point x="123" y="147"/>
      <point x="123" y="164" type="curve" smooth="yes"/>
      <point x="123" y="176"/>
      <point x="127" y="189"/>
      <point x="130" y="196" type="curve"/>
      <point x="55" y="208" type="line"/>
      <point x="45" y="193"/>
      <point x="39" y="170"/>
      <point x="39" y="150" type="curve" smooth="yes"/>
      <point x="39" y="106"/>
      <point x="70" y="64"/>
    </contour>
  </outline>
</glyph>
<glyph name="maiHanaKat-thai" format="2">
  <unicode hex="0E31"/>
  <anchor x="-89" y="506" name="_top"/>
  <anchor x="-59" y="685" name="top"/>
  <outline>
    <contour>
      <point x="-216" y="605" type="curve" smooth="yes"/>
      <point x="42" y="605" type="line"/>
      <point x="42" y="673" type="line"/>
      <point x="-211" y="673" type="line" smooth="yes"/>
      <point x="-236" y="673"/>
      <point x="-246" y="688"/>
      <point x="-246" y="705" type="curve" smooth="yes"/>
      <point x="-246" y="716"/>
      <point x="-243" y="730"/>
      <point x="-240" y="736" type="curve"/>
      <point x="-315" y="749" type="line"/>
      <point x="-325" y="734"/>
      <point x="-331" y="708"/>
      <point x="-331" y="688" type="curve" smooth="yes"/>
      <point x="-331" y="645"/>
      <point x="-300" y="605"/>
    </contour>
  </outline>
</glyph>
<glyph name="saraAa-thai" format="2">
  <advance width="406"/>
  <unicode hex="0E32"/>
  <outline>
    <contour>
      <point x="236" y="0" type="line"/>
      <point x="325" y="0" type="line"/>
      <point x="325" y="378" type="line" smooth="yes"/>
      <point x="325" y="487"/>
      <point x="259" y="527"/>
      <point x="155" y="527" type="curve" smooth="yes"/>
      <point x="87" y="527"/>
      <point x="37" y="511"/>
      <point x="10" y="498" type="curve"/>
      <point x="10" y="420" type="line"/>
      <point x="49" y="440"/>
      <point x="90" y="453"/>
      <point x="138" y="453" type="curve" smooth="yes"/>
      <point x="209" y="453"/>
      <point x="236" y="425"/>
      <point x="236" y="365" type="curve" smooth="yes"/>
    </contour>
  </outline>
</glyph>
<glyph name="saraI-thai" format="2">
  <unicode hex="0E34"/>
  <anchor x="-89" y="506" name="_top"/>
  <anchor x="-89" y="683" name="top"/>
  <outline>
    <contour>
      <point x="-514" y="605" type="line"/>
      <point x="-89" y="605" type="line"/>
      <point x="-89" y="676" type="line"/>
      <point x="-441" y="676" type="line"/>
      <point x="-514" y="644" type="line"/>
    </contour>
  </outline>
</glyph>
<glyph name="saraUe-thai" format="2">
  <unicode hex="0E36"/>
  <anchor x="-89" y="506" name="_top"/>
  <anchor x="-118" y="742" name="top"/>
  <outline>
    <contour>
      <point x="-514" y="605" type="line"/>
      <point x="-166" y="605" type="line" smooth="yes"/>
      <point x="-108" y="605"/>
      <point x="-76" y="640"/>
      <point x="-76" y="686" type="curve" smooth="yes"/>
      <point x="-76" y="735"/>
      <point x="-112" y="770"/>
      <point x="-171" y="770" type="curve" smooth="yes"/>
      <point x="-229" y="770"/>
      <point x="-263" y="736"/>
      <point x="-263" y="687" type="curve" smooth="yes"/>
      <point x="-263" y="679"/>
      <point x="-262" y="666"/>
      <point x="-255" y="651" type="curve"/>
      <point x="-242" y="676" type="line"/>
      <point x="-441" y="676" type="line"/>
      <point x="-514" y="644" type="line"/>
    </contour>
    <contour>
      <point x="-169" y="648" type="curve" smooth="yes"/>
      <point x="-198" y="648"/>
      <point x="-212" y="666"/>
      <point x="-212" y="688" type="curve" smooth="yes"/>
      <point x="-212" y="710"/>
      <point x="-197" y="726"/>
      <point x="-170" y="726" type="curve" smooth="yes"/>
      <point x="-143" y="726"/>
      <point x="-127" y="710"/>
      <point x="-127" y="687" type="curve" smooth="yes"/>
      <point x="-127" y="665"/>
      <point x="-142" y="648"/>
    </contour>
  </outline>
</glyph>
<glyph name="saraUee-thai" format="2">
  <unicode hex="0E37"/>
  <anchor x="-89" y="506" name="_top"/>
  <anchor x="-154" y="742" name="top"/>
  <outline>
    <contour>
      <point x="-514" y="605" type="line"/>
      <point x="-89" y="605" type="line"/>
      <point x="-89" y="676" type="line"/>
      <point x="-441" y="676" type="line"/>
      <point x="-514" y="644" type="line"/>
    </contour>
    <contour>
      <point x="-308" y="644" type="line"/>
      <point x="-234" y="644" type="line"/>
      <point x="-234" y="757" type="line"/>
      <point x="-308" y="757" type="line"/>
    </contour>
    <contour>
      <point x="-162" y="644" type="line"/>
      <point x="-89" y="644" type="line"/>
      <point x="-89" y="757" type="line"/>
      <point x="-162" y="757" type="line"/>
    </contour>
  </outline>
</glyph>
<glyph name="saraUu-thai" format="2">
  <unicode hex="0E39"/>
  <anchor x="-89" y="0" name="_bottom"/>
  <anchor x="-89" y="-265" name="bottom"/>
  <outline>
    <contour>
      <point x="-219" y="-265" type="curve" smooth="yes"/>
      <point x="-134" y="-265"/>
      <point x="-89" y="-230"/>
      <point x="-89" y="-164" type="curve" smooth="yes"/>
      <point x="-89" y="-67" type="line"/>
      <point x="-167" y="-67" type="line"/>
      <point x="-167" y="-159" type="line" smooth="yes"/>
      <point x="-167" y="-185"/>
      <point x="-180" y="-204"/>
      <point x="-220" y="-204" type="curve" smooth="yes"/>
      <point x="-259" y="-204"/>
      <point x="-273" y="-185"/>
      <point x="-273" y="-159" type="curve" smooth="yes"/>
      <point x="-273" y="-125" type="line" smooth="yes"/>
      <point x="-273" y="-87"/>
      <point x="-292" y="-64"/>
      <point x="-340" y="-64" type="curve" smooth="yes"/>
      <point x="-349" y="-64"/>
      <point x="-370" y="-65"/>
      <point x="-388" y="-70" type="curve"/>
      <point x="-382" y="-130" type="line"/>
      <point x="-362" y="-125"/>
      <point x="-350" y="-128"/>
      <point x="-350" y="-150" type="curve" smooth="yes"/>
      <point x="-350" y="-167" type="line" smooth="yes"/>
      <point x="-350" y="-230"/>
      <point x="-305" y="-265"/>
    </contour>
  </outline>
</glyph>
<glyph name="baht" format="2">
  <advance width="584"/>
  <unicode hex="0E3F"/>
  <outline>
    <contour>
      <point x="79" y="36" type="line"/>
      <point x="309" y="36" type="line" smooth="yes"/>
      <point x="448" y="36"/>
      <point x="536" y="102"/>
      <point x="536" y="218" type="curve" smooth="yes"/>
      <point x="536" y="318"/>
      <point x="472" y="358"/>
      <point x="390" y="372" type="curve"/>
      <point x="390" y="376" type="line"/>
      <point x="470" y="390"/>
      <point x="514" y="442"/>
      <point x="514" y="518" type="curve" smooth="yes"/>
      <point x="514" y="633"/>
      <point x="431" y="677"/>
      <point x="267" y="677" type="curve" smooth="yes"/>
      <point x="79" y="677" type="line"/>
    </contour>
    <contour>
      <point x="165" y="112" type="line"/>
      <point x="165" y="332" type="line"/>
      <point x="287" y="332" type="line" smooth="yes"/>
      <point x="402" y="332"/>
      <point x="441" y="288"/>
      <point x="441" y="226" type="curve" smooth="yes"/>
      <point x="441" y="160"/>
      <point x="403" y="112"/>
      <point x="294" y="112" type="curve" smooth="yes"/>
    </contour>
    <contour>
      <point x="165" y="409" type="line"/>
      <point x="165" y="600" type="line"/>
      <point x="270" y="600" type="line" smooth="yes"/>
      <point x="374" y="600"/>
      <point x="422" y="573"/>
      <point x="422" y="508" type="curve" smooth="yes"/>
      <point x="422" y="444"/>
      <point x="389" y="409"/>
      <point x="283" y="409" type="curve" smooth="yes"/>
    </contour>
    <contour>
      <point x="254" y="-58" type="line"/>
      <point x="315" y="-58" type="line"/>
      <point x="315" y="760" type="line"/>
      <point x="254" y="760" type="line"/>
    </contour>
  </outline>
</glyph>
<glyph name="saraE-thai" format="2">
  <advance width="295"/>
  <unicode hex="0E40"/>
  <outline>
    <contour>
      <point x="205" y="-9" type="curve" smooth="yes"/>
      <point x="227" y="-9"/>
      <point x="251" y="-6"/>
      <point x="277" y="5" type="curve"/>
      <point x="265" y="69" type="line"/>
      <point x="253" y="65"/>
      <point x="239" y="62"/>
      <point x="227" y="62" type="curve" smooth="yes"/>
      <point x="197" y="62"/>
      <point x="185" y="74"/>
      <point x="185" y="103" type="curve" smooth="yes"/>
      <point x="185" y="517" type="line"/>
      <point x="96" y="517" type="line"/>
      <point x="96" y="92" type="line" smooth="yes"/>
      <point x="96" y="14"/>
      <point x="150" y="-9"/>
    </contour>
  </outline>
</glyph>
<glyph name="saraO-thai" format="2">
  <advance width="308"/>
  <unicode hex="0E42"/>
  <outline>
    <contour>
      <point x="110" y="448" type="line"/>
      <point x="199" y="448" type="line"/>
      <point x="199" y="587" type="line" smooth="yes"/>
      <point x="199" y="652"/>
      <point x="175" y="692"/>
      <point x="146" y="712" type="curve"/>
      <point x="147" y="716" type="line"/>
      <point x="350" y="716" type="line"/>
      <point x="350" y="786" type="line"/>
      <point x="83" y="786" type="line"/>
      <point x="9" y="754" type="line"/>
      <point x="9" y="716" type="line"/>
      <point x="68" y="716"/>
      <point x="110" y="684"/>
      <point x="110" y="604" type="curve" smooth="yes"/>
    </contour>
    <component base="saraE-thai" xOffset="14"/>
  </outline>
</glyph>
<glyph name="saraAiMaimuan-thai" format="2">
  <advance width="289"/>
  <unicode hex="0E43"/>
  <outline>
    <contour>
      <point x="196" y="-9" type="curve" smooth="yes"/>
      <point x="218" y="-9"/>
      <point x="242" y="-6"/>
      <point x="267" y="5" type="curve"/>
      <point x="255" y="69" type="line"/>
      <point x="244" y="65"/>
      <point x="231" y="62"/>
      <point x="216" y="62" type="curve" smooth="yes"/>
      <point x="188" y="62"/>
      <point x="175" y="74"/>
      <point x="175" y="103" type="curve" smooth="yes"/>
      <point x="175" y="457" type="line" smooth="yes"/>
      <point x="175" y="503"/>
      <point x="191" y="514"/>
      <point x="226" y="557" type="curve" smooth="yes"/>
      <point x="251" y="587"/>
      <point x="276" y="624"/>
      <point x="276" y="674" type="curve" smooth="yes"/>
      <point x="276" y="751"/>
      <point x="217" y="788"/>
      <point x="129" y="788" type="curve" smooth="yes"/>
      <point x="77" y="788"/>
      <point x="37" y="775"/>
      <point x="19" y="766" type="curve"/>
      <point x="19" y="691" type="line"/>
      <point x="41" y="703"/>
      <point x="76" y="716"/>
      <point x="118" y="716" type="curve" smooth="yes"/>
      <point x="166" y="716"/>
      <point x="189" y="698"/>
      <point x="189" y="662" type="curve" smooth="yes"/>
      <point x="189" y="632"/>
      <point x="173" y="612"/>
      <point x="140" y="574" type="curve" smooth="yes"/>
      <point x="98" y="526"/>
      <point x="86" y="510"/>
      <point x="86" y="459" type="curve" smooth="yes"/>
      <point x="86" y="92" type="line" smooth="yes"/>
      <point x="86" y="14"/>
      <point x="140" y="-9"/>
    </contour>
  </outline>
</glyph>
<glyph name="saraAiMaimalai-thai" format="2">
  <advance width="304"/>
  <unicode hex="0E44"/>
  <outline>
    <contour>
      <point x="110" y="448" type="line"/>
      <point x="199" y="448" type="line"/>
      <point x="199" y="604" type="line" smooth="yes"/>
      <point x="199" y="689"/>
      <point x="242" y="716"/>
      <point x="292" y="716" type="curve"/>
      <point x="292" y="786" type="line"/>
      <point x="10" y="786" type="line"/>
      <point x="-13" y="716" type="line"/>
      <point x="161" y="716" type="line"/>
      <point x="162" y="712" type="line"/>
      <point x="134" y="692"/>
      <point x="110" y="662"/>
      <point x="110" y="587" type="curve" smooth="yes"/>
    </contour>
    <component base="saraE-thai" xOffset="14"/>
  </outline>
</glyph>
<glyph name="maiyamok-thai" format="2">
  <advance width="595"/>
  <unicode hex="0E46"/>
  <outline>
    <contour>
      <point x="427" y="-191" type="line"/>
      <point x="514" y="-191" type="line"/>
      <point x="514" y="410" type="line" smooth="yes"/>
      <point x="514" y="499"/>
      <point x="463" y="527"/>
      <point x="399" y="527" type="curve" smooth="yes"/>
      <point x="353" y="527"/>
      <point x="318" y="512"/>
      <point x="302" y="478" type="curve"/>
      <point x="299" y="478" type="line"/>
      <point x="284" y="512"/>
      <point x="247" y="527"/>
      <point x="203" y="527" type="curve" smooth="yes"/>
      <point x="127" y="527"/>
      <point x="78" y="481"/>
      <point x="78" y="362" type="curve" smooth="yes"/>
      <point x="78" y="253"/>
      <point x="119" y="192"/>
      <point x="211" y="192" type="curve" smooth="yes"/>
      <point x="238" y="192"/>
      <point x="259" y="198"/>
      <point x="281" y="208" type="curve"/>
      <point x="264" y="273" type="line"/>
      <point x="250" y="268"/>
      <point x="236" y="265"/>
      <point x="224" y="265" type="curve" smooth="yes"/>
      <point x="184" y="265"/>
      <point x="164" y="288"/>
      <point x="164" y="364" type="curve" smooth="yes"/>
      <point x="164" y="430"/>
      <point x="180" y="455"/>
      <point x="214" y="455" type="curve" smooth="yes"/>
      <point x="243" y="455"/>
      <point x="260" y="439"/>
      <point x="260" y="401" type="curve" smooth="yes"/>
      <point x="260" y="361" type="line"/>
      <point x="335" y="361" type="line"/>
      <point x="335" y="401" type="line" smooth="yes"/>
      <point x="335" y="439"/>
      <point x="350" y="455"/>
      <point x="381" y="455" type="curve" smooth="yes"/>
      <point x="411" y="455"/>
      <point x="427" y="439"/>
      <point x="427" y="401" type="curve" smooth="yes"/>
    </contour>
  </outline>
</glyph>
<glyph name="maitaikhu-thai" format="2">
  <unicode hex="0E47"/>
  <anchor x="-89" y="506" name="_top"/>
  <anchor x="-196" y="815" name="top"/>
  <outline>
    <contour>
      <point x="-193" y="590" type="curve" smooth="yes"/>
      <point x="-136" y="590"/>
      <point x="-99" y="622"/>
      <point x="-99" y="688" type="curve" smooth="yes"/>
      <point x="-99" y="702" type="line"/>
      <point x="-164" y="702" type="line"/>
      <point x="-164" y="689" type="line" smooth="yes"/>
      <point x="-164" y="665"/>
      <point x="-177" y="649"/>
      <point x="-202" y="649" type="curve" smooth="yes"/>
      <point x="-232" y="649"/>
      <point x="-248" y="672"/>
      <point x="-253" y="702" type="curve"/>
      <point x="-272" y="702" type="line"/>
      <point x="-328" y="652" type="line"/>
      <point x="-363" y="652"/>
      <point x="-376" y="672"/>
      <point x="-376" y="700" type="curve" smooth="yes"/>
      <point x="-376" y="738"/>
      <point x="-351" y="756"/>
      <point x="-320" y="756" type="curve" smooth="yes"/>
      <point x="-100" y="756" type="line"/>
      <point x="-100" y="816" type="line"/>
      <point x="-333" y="816" type="line" smooth="yes"/>
      <point x="-393" y="816"/>
      <point x="-447" y="780"/>
      <point x="-447" y="704" type="curve" smooth="yes"/>
      <point x="-447" y="632"/>
      <point x="-397" y="593"/>
      <point x="-322" y="593" type="curve"/>
      <point x="-272" y="636" type="line"/>
      <point x="-257" y="605"/>
      <point x="-230" y="590"/>
    </contour>
  </outline>
</glyph>
<glyph name="maiEk-thai" format="2">
  <unicode hex="0E48"/>
  <anchor x="-89" y="506" name="_top"/>
  <anchor x="-89" y="815" name="top"/>
  <outline>
    <contour>
      <point x="-178" y="605" type="line"/>
      <point x="-90" y="605" type="line"/>
      <point x="-90" y="816" type="line"/>
      <point x="-178" y="816" type="line"/>
    </contour>
  </outline>
</glyph>
<glyph name="maiTho-thai" format="2">
  <unicode hex="0E49"/>
  <anchor x="-89" y="506" name="_top"/>
  <anchor x="-192" y="815" name="top"/>
  <outline>
    <contour>
      <point x="-368" y="605" type="line"/>
      <point x="-58" y="605" type="line"/>
      <point x="-58" y="675" type="line"/>
      <point x="-257" y="675" type="line"/>
      <point x="-247" y="651" type="line"/>
      <point x="-222" y="667"/>
      <point x="-199" y="695"/>
      <point x="-199" y="732" type="curve" smooth="yes"/>
      <point x="-199" y="777"/>
      <point x="-231" y="810"/>
      <point x="-284" y="810" type="curve" smooth="yes"/>
      <point x="-304" y="810"/>
      <point x="-341" y="805"/>
      <point x="-368" y="784" type="curve"/>
      <point x="-348" y="729" type="line"/>
      <point x="-338" y="733"/>
      <point x="-323" y="740"/>
      <point x="-309" y="740" type="curve" smooth="yes"/>
      <point x="-288" y="740"/>
      <point x="-278" y="727"/>
      <point x="-278" y="711" type="curve" smooth="yes"/>
      <point x="-278" y="674"/>
      <point x="-328" y="657"/>
      <point x="-368" y="649" type="curve"/>
    </contour>
  </outline>
</glyph>
<glyph name="maiTri-thai" format="2">
  <unicode hex="0E4A"/>
  <anchor x="-89" y="506" name="_top"/>
  <anchor x="-200" y="815" name="top"/>
  <outline>
    <contour>
      <point x="-318" y="600" type="curve" smooth="yes"/>
      <point x="-297" y="600"/>
      <point x="-279" y="604"/>
      <point x="-269" y="610" type="curve"/>
      <point x="-282" y="657" type="line"/>
      <point x="-290" y="653"/>
      <point x="-299" y="652"/>
      <point x="-305" y="652" type="curve" smooth="yes"/>
      <point x="-330" y="652"/>
      <point x="-347" y="669"/>
      <point x="-347" y="701" type="curve" smooth="yes"/>
      <point x="-347" y="734"/>
      <point x="-329" y="743"/>
      <point x="-316" y="746" type="curve"/>
      <point x="-268" y="717" type="line"/>
      <point x="-262" y="717" type="line"/>
      <point x="-214" y="746" type="line"/>
      <point x="-201" y="744"/>
      <point x="-180" y="732"/>
      <point x="-180" y="700" type="curve" smooth="yes"/>
      <point x="-180" y="670"/>
      <point x="-199" y="655"/>
      <point x="-217" y="647" type="curve"/>
      <point x="-217" y="605" type="line"/>
      <point x="-37" y="605" type="line"/>
      <point x="-37" y="670" type="line"/>
      <point x="-140" y="670" type="line"/>
      <point x="-136" y="656" type="line"/>
      <point x="-118" y="671"/>
      <point x="-108" y="691"/>
      <point x="-108" y="717" type="curve" smooth="yes"/>
      <point x="-108" y="763"/>
      <point x="-135" y="801"/>
      <point x="-210" y="808" type="curve"/>
      <point x="-265" y="772" type="line"/>
      <point x="-321" y="808" type="line"/>
      <point x="-384" y="801"/>
      <point x="-421" y="766"/>
      <point x="-421" y="702" type="curve" smooth="yes"/>
      <point x="-421" y="639"/>
      <point x="-384" y="600"/>
    </contour>
  </outline>
</glyph>
<glyph name="maiChattawa-thai" format="2">
  <unicode hex="0E4B"/>
  <anchor x="-89" y="506" name="_top"/>
  <anchor x="-160" y="815" name="top"/>
  <outline>
    <contour>
      <point x="-240" y="605" type="line"/>
      <point x="-164" y="605" type="line"/>
      <point x="-164" y="816" type="line"/>
      <point x="-240" y="816" type="line"/>
    </contour>
    <contour>
      <point x="-316" y="677" type="line"/>
      <point x="-88" y="677" type="line"/>
      <point x="-88" y="741" type="line"/>
      <point x="-316" y="741" type="line"/>
    </contour>
  </outline>
</glyph>
<glyph name="thanthakhat-thai" format="2">
  <unicode hex="0E4C"/>
  <anchor x="-89" y="506" name="_top"/>
  <anchor x="-108" y="741" name="top"/>
  <outline>
    <contour>
      <point x="-253" y="576" type="curve"/>
      <point x="-176" y="588" type="line"/>
      <point x="-181" y="598"/>
      <point x="-185" y="609"/>
      <point x="-185" y="619" type="curve" smooth="yes"/>
      <point x="-185" y="643"/>
      <point x="-168" y="652"/>
      <point x="-141" y="652" type="curve" smooth="yes"/>
      <point x="-27" y="652" type="line"/>
      <point x="-27" y="721" type="line"/>
      <point x="-164" y="721" type="line" smooth="yes"/>
      <point x="-247" y="721"/>
      <point x="-269" y="681"/>
      <point x="-269" y="639" type="curve" smooth="yes"/>
      <point x="-269" y="616"/>
      <point x="-262" y="590"/>
    </contour>
  </outline>
</glyph>
<glyph name="nikhahit-thai" format="2">
  <unicode hex="0E4D"/>
  <anchor x="-89" y="506" name="_top"/>
  <anchor x="-118" y="742" name="top"/>
  <outline>
    <contour>
      <point x="-160" y="581" type="curve" smooth="yes"/>
      <point x="-93" y="581"/>
      <point x="-50" y="613"/>
      <point x="-50" y="671" type="curve" smooth="yes"/>
      <point x="-50" y="729"/>
      <point x="-93" y="761"/>
      <point x="-160" y="761" type="curve" smooth="yes"/>
      <point x="-227" y="761"/>
      <point x="-268" y="729"/>
      <point x="-268" y="671" type="curve" smooth="yes"/>
      <point x="-268" y="613"/>
      <point x="-227" y="581"/>
    </contour>
    <contour>
      <point x="-160" y="628" type="curve" smooth="yes"/>
      <point x="-191" y="628"/>
      <point x="-208" y="645"/>
      <point x="-208" y="671" type="curve" smooth="yes"/>
      <point x="-208" y="697"/>
      <point x="-191" y="714"/>
      <point x="-160" y="714" type="curve" smooth="yes"/>
      <point x="-128" y="714"/>
      <point x="-111" y="697"/>
      <point x="-111" y="671" type="curve" smooth="yes"/>
      <point x="-111" y="645"/>
      <point x="-128" y="628"/>
    </contour>
  </outline>
</glyph>
<glyph name="yamakkan-thai" format="2">
  <unicode hex="0E4E"/>
  <anchor x="-89" y="506" name="_top"/>
  <anchor x="-105" y="736" name="top"/>
  <outline>
    <contour>
      <point x="-255" y="576" type="curve"/>
      <point x="-200" y="586" type="line"/>
      <point x="-204" y="595"/>
      <point x="-208" y="604"/>
      <point x="-208" y="613" type="curve" smooth="yes"/>
      <point x="-208" y="629"/>
      <point x="-197" y="644"/>
      <point x="-172" y="644" type="curve" smooth="yes"/>
      <point x="-165" y="644"/>
      <point x="-150" y="643"/>
      <point x="-137" y="632" type="curve"/>
      <point x="-109" y="652" type="line"/>
      <point x="-113" y="660"/>
      <point x="-116" y="670"/>
      <point x="-116" y="679" type="curve" smooth="yes"/>
      <point x="-116" y="700"/>
      <point x="-101" y="714"/>
      <point x="-71" y="714" type="curve" smooth="yes"/>
      <point x="-63" y="714"/>
      <point x="-50" y="713"/>
      <point x="-36" y="709" type="curve"/>
      <point x="-36" y="761" type="line"/>
      <point x="-53" y="768"/>
      <point x="-75" y="771"/>
      <point x="-90" y="771" type="curve" smooth="yes"/>
      <point x="-131" y="771"/>
      <point x="-169" y="751"/>
      <point x="-169" y="710" type="curve" smooth="yes"/>
      <point x="-169" y="693"/>
      <point x="-163" y="678"/>
      <point x="-156" y="667" type="curve"/>
      <point x="-143" y="676" type="line"/>
      <point x="-156" y="687"/>
      <point x="-168" y="697"/>
      <point x="-195" y="697" type="curve" smooth="yes"/>
      <point x="-236" y="697"/>
      <point x="-270" y="674"/>
      <point x="-270" y="629" type="curve" smooth="yes"/>
      <point x="-270" y="610"/>
      <point x="-263" y="588"/>
    </contour>
  </outline>
</glyph>
<glyph name="fongman-thai" format="2">
  <advance width="595"/>
  <unicode hex="0E4F"/>
  <outline>
    <contour>
      <point x="298" y="-10" type="curve" smooth="yes"/>
      <point x="457" y="-10"/>
      <point x="536" y="80"/>
      <point x="536" y="228" type="curve" smooth="yes"/>
      <point x="536" y="382"/>
      <point x="457" y="465"/>
      <point x="298" y="465" type="curve" smooth="yes"/>
      <point x="139" y="465"/>
      <point x="60" y="382"/>
      <point x="60" y="228" type="curve" smooth="yes"/>
      <point x="60" y="80"/>
      <point x="139" y="-10"/>
    </contour>
    <contour>
      <point x="298" y="60" type="curve" smooth="yes"/>
      <point x="196" y="60"/>
      <point x="146" y="119"/>
      <point x="146" y="228" type="curve" smooth="yes"/>
      <point x="146" y="344"/>
      <point x="196" y="395"/>
      <point x="298" y="395" type="curve" smooth="yes"/>
      <point x="398" y="395"/>
      <point x="449" y="344"/>
      <point x="449" y="228" type="curve" smooth="yes"/>
      <point x="449" y="119"/>
      <point x="398" y="60"/>
    </contour>
    <contour>
      <point x="298" y="121" type="curve" smooth="yes"/>
      <point x="362" y="121"/>
      <point x="392" y="163"/>
      <point x="392" y="228" type="curve" smooth="yes"/>
      <point x="392" y="297"/>
      <point x="362" y="334"/>
      <point x="298" y="334" type="curve" smooth="yes"/>
      <point x="233" y="334"/>
      <point x="203" y="297"/>
      <point x="203" y="228" type="curve" smooth="yes"/>
      <point x="203" y="163"/>
      <point x="233" y="121"/>
    </contour>
  </outline>
</glyph>
<glyph name="three-thai" format="2">
  <advance width="559"/>
  <unicode hex="0E53"/>
  <outline>
    <contour>
      <point x="209" y="-10" type="curve" smooth="yes"/>
      <point x="234" y="-10"/>
      <point x="261" y="-5"/>
      <point x="278" y="1" type="curve"/>
      <point x="268" y="68" type="line"/>
      <point x="255" y="63"/>
      <point x="240" y="61"/>
      <point x="230" y="61" type="curve" smooth="yes"/>
      <point x="172" y="61"/>
      <point x="146" y="123"/>
      <point x="146" y="240" type="curve" smooth="yes"/>
      <point x="146" y="340"/>
      <point x="166" y="393"/>
      <point x="209" y="393" type="curve" smooth="yes"/>
      <point x="231" y="393"/>
      <point x="250" y="380"/>
      <point x="255" y="334" type="curve"/>
      <point x="310" y="334" type="line"/>
      <point x="315" y="381"/>
      <point x="334" y="393"/>
      <point x="361" y="393" type="curve" smooth="yes"/>
      <point x="384" y="393"/>
      <point x="408" y="385"/>
      <point x="408" y="335" type="curve" smooth="yes"/>
      <point x="408" y="0" type="line"/>
      <point x="495" y="0" type="line"/>
      <point x="495" y="335" type="line" smooth="yes"/>
      <point x="495" y="429"/>
      <point x="447" y="465"/>
      <point x="375" y="465" type="curve" smooth="yes"/>
      <point x="333" y="465"/>
      <point x="299" y="452"/>
      <point x="286" y="414" type="curve"/>
      <point x="282" y="414" type="line"/>
      <point x="268" y="452"/>
      <point x="235" y="465"/>
      <point x="197" y="465" type="curve" smooth="yes"/>
      <point x="107" y="465"/>
      <point x="58" y="391"/>
      <point x="58" y="238" type="curve" smooth="yes"/>
      <point x="58" y="97"/>
      <point x="100" y="-10"/>
    </contour>
  </outline>
</glyph>
<glyph name="seven-thai" format="2">
  <advance width="720"/>
  <unicode hex="0E57"/>
  <outline>
    <contour>
      <point x="214" y="-10" type="curve" smooth="yes"/>
      <point x="239" y="-10"/>
      <point x="261" y="-5"/>
      <point x="278" y="1" type="curve"/>
      <point x="268" y="68" type="line"/>
      <point x="255" y="63"/>
      <point x="240" y="61"/>
      <point x="229" y="61" type="curve" smooth="yes"/>
      <point x="169" y="61"/>
      <point x="146" y="119"/>
      <point x="146" y="247" type="curve" smooth="yes"/>
      <point x="146" y="343"/>
      <point x="158" y="393"/>
      <point x="203" y="393" type="curve" smooth="yes"/>
      <point x="229" y="393"/>
      <point x="241" y="377"/>
      <point x="246" y="334" type="curve"/>
      <point x="300" y="334" type="line"/>
      <point x="305" y="376"/>
      <point x="315" y="393"/>
      <point x="347" y="393" type="curve" smooth="yes"/>
      <point x="373" y="393"/>
      <point x="389" y="380"/>
      <point x="389" y="340" type="curve" smooth="yes"/>
      <point x="389" y="0" type="line"/>
      <point x="456" y="0" type="line" smooth="yes"/>
      <point x="553" y="0"/>
      <point x="651" y="42"/>
      <point x="651" y="182" type="curve" smooth="yes"/>
      <point x="651" y="584" type="line"/>
      <point x="565" y="584" type="line"/>
      <point x="565" y="185" type="line" smooth="yes"/>
      <point x="565" y="103"/>
      <point x="533" y="73"/>
      <point x="474" y="73" type="curve"/>
      <point x="474" y="353" type="line" smooth="yes"/>
      <point x="474" y="436"/>
      <point x="430" y="465"/>
      <point x="365" y="465" type="curve" smooth="yes"/>
      <point x="325" y="465"/>
      <point x="291" y="454"/>
      <point x="276" y="414" type="curve"/>
      <point x="271" y="414" type="line"/>
      <point x="257" y="452"/>
      <point x="231" y="465"/>
      <point x="191" y="465" type="curve" smooth="yes"/>
      <point x="108" y="465"/>
      <point x="58" y="409"/>
      <point x="58" y="243" type="curve" smooth="yes"/>
      <point x="58" y="93"/>
      <point x="99" y="-10"/>
    </contour>
  </outline>
</glyph>
<glyph name="eight-thai" format="2">
  <advance width="565"/>
  <unicode hex="0E58"/>
  <outline>
    <contour>
      <point x="383" y="-10" type="curve" smooth="yes"/>
      <point x="464" y="-10"/>
      <point x="518" y="48"/>
      <point x="518" y="142" type="curve" smooth="yes"/>
      <point x="518" y="208"/>
      <point x="495" y="257"/>
      <point x="443" y="284" type="curve"/>
      <point x="391" y="223" type="line"/>
      <point x="410" y="209"/>
      <point x="433" y="189"/>
      <point x="433" y="139" type="curve" smooth="yes"/>
      <point x="433" y="88"/>
      <point x="411" y="63"/>
      <point x="373" y="63" type="curve" smooth="yes"/>
      <point x="336" y="63"/>
      <point x="317" y="86"/>
      <point x="317" y="144" type="curve"/>
      <point x="269" y="144" type="line"/>
      <point x="210" y="79" type="line"/>
      <point x="177" y="86"/>
      <point x="145" y="120"/>
      <point x="145" y="223" type="curve" smooth="yes"/>
      <point x="145" y="324"/>
      <point x="177" y="387"/>
      <point x="265" y="387" type="curve" smooth="yes"/>
      <point x="326" y="387" type="line" smooth="yes"/>
      <point x="442" y="387"/>
      <point x="484" y="440"/>
      <point x="484" y="544" type="curve" smooth="yes"/>
      <point x="484" y="584" type="line"/>
      <point x="400" y="584" type="line"/>
      <point x="400" y="550" type="line" smooth="yes"/>
      <point x="400" y="480"/>
      <point x="386" y="460"/>
      <point x="305" y="460" type="curve" smooth="yes"/>
      <point x="255" y="460" type="line" smooth="yes"/>
      <point x="106" y="460"/>
      <point x="58" y="351"/>
      <point x="58" y="219" type="curve" smooth="yes"/>
      <point x="58" y="66"/>
      <point x="123" y="-6"/>
      <point x="220" y="-6" type="curve"/>
      <point x="290" y="81" type="line"/>
      <point x="272" y="81" type="line"/>
      <point x="279" y="18"/>
      <point x="320" y="-10"/>
    </contour>
  </outline>
</glyph>
<glyph name="angkhankhu-thai" format="2">
  <advance width="767"/>
  <unicode hex="0E5A"/>
  <outline>
    <contour>
      <point x="332" y="-1" type="line"/>
      <point x="421" y="-1" type="line"/>
      <point x="421" y="517" type="line"/>
      <point x="332" y="517" type="line"/>
      <point x="332" y="394" type="line" smooth="yes"/>
      <point x="332" y="318"/>
      <point x="297" y="280"/>
      <point x="218" y="280" type="curve" smooth="yes"/>
      <point x="144" y="280"/>
      <point x="107" y="313"/>
      <point x="107" y="373" type="curve" smooth="yes"/>
      <point x="107" y="430"/>
      <point x="142" y="456"/>
      <point x="189" y="456" type="curve" smooth="yes"/>
      <point x="196" y="456"/>
      <point x="209" y="455"/>
      <point x="227" y="450" type="curve"/>
      <point x="240" y="515" type="line"/>
      <point x="214" y="525"/>
      <point x="190" y="527"/>
      <point x="172" y="527" type="curve" smooth="yes"/>
      <point x="76" y="527"/>
      <point x="18" y="469"/>
      <point x="18" y="376" type="curve" smooth="yes"/>
      <point x="18" y="265"/>
      <point x="94" y="209"/>
      <point x="205" y="209" type="curve" smooth="yes"/>
      <point x="289" y="209"/>
      <point x="356" y="244"/>
      <point x="362" y="331" type="curve"/>
      <point x="332" y="330" type="line"/>
    </contour>
    <contour>
      <point x="580" y="-1" type="line"/>
      <point x="669" y="-1" type="line"/>
      <point x="669" y="517" type="line"/>
      <point x="580" y="517" type="line"/>
      <point x="580" y="405" type="line" smooth="yes"/>
      <point x="580" y="329"/>
      <point x="538" y="289"/>
      <point x="465" y="289" type="curve" smooth="yes"/>
      <point x="430" y="289"/>
      <point x="414" y="298"/>
      <point x="400" y="307" type="curve"/>
      <point x="376" y="250" type="line"/>
      <point x="402" y="229"/>
      <point x="432" y="217"/>
      <point x="470" y="217" type="curve" smooth="yes"/>
      <point x="539" y="217"/>
      <point x="605" y="256"/>
      <point x="610" y="341" type="curve"/>
      <point x="580" y="341" type="line"/>
    </contour>
  </outline>
</glyph>
<glyph name="doChada-thai.short" format="2">
  <advance width="603"/>
  <anchor x="522" y="-76" name="bottom"/>
  <anchor x="510" y="506" name="top"/>
  <outline>
    <contour>
      <point x="123" y="-126" type="line"/>
      <point x="214" y="-126" type="line"/>
      <point x="214" y="-121" type="line" smooth="yes"/>
      <point x="214" y="-97"/>
      <point x="236" y="-70"/>
      <point x="295" y="-70" type="curve" smooth="yes"/>
      <point x="349" y="-70"/>
      <point x="413" y="-93"/>
      <point x="442" y="-126" type="curve"/>
      <point x="522" y="-126" type="line"/>
      <point x="522" y="347" type="line" smooth="yes"/>
      <point x="522" y="473"/>
      <point x="416" y="527"/>
      <point x="293" y="527" type="curve" smooth="yes"/>
      <point x="150" y="527"/>
      <point x="67" y="454"/>
      <point x="67" y="375" type="curve" smooth="yes"/>
      <point x="67" y="345" type="line"/>
      <point x="182" y="305" type="line"/>
      <point x="181" y="302" type="line"/>
      <point x="124" y="289"/>
      <point x="92" y="259"/>
      <point x="92" y="183" type="curve" smooth="yes"/>
      <point x="92" y="98" type="line" smooth="yes"/>
      <point x="92" y="73"/>
      <point x="83" y="61"/>
      <point x="62" y="61" type="curve" smooth="yes"/>
      <point x="51" y="61"/>
      <point x="38" y="64"/>
      <point x="29" y="67" type="curve"/>
      <point x="19" y="6" type="line"/>
      <point x="42" y="-4"/>
      <point x="64" y="-8"/>
      <point x="87" y="-8" type="curve" smooth="yes"/>
      <point x="140" y="-8"/>
      <point x="181" y="13"/>
      <point x="181" y="90" type="curve" smooth="yes"/>
      <point x="181" y="180" type="line" smooth="yes"/>
      <point x="181" y="246"/>
      <point x="214" y="274"/>
      <point x="264" y="274" type="curve"/>
      <point x="272" y="320" type="line"/>
      <point x="158" y="370" type="line"/>
      <point x="158" y="418"/>
      <point x="209" y="453"/>
      <point x="291" y="453" type="curve" smooth="yes"/>
      <point x="370" y="453"/>
      <point x="433" y="420"/>
      <point x="433" y="338" type="curve" smooth="yes"/>
      <point x="433" y="-87" type="line"/>
      <point x="459" y="-77" type="line"/>
      <point x="420" y="-39"/>
      <point x="352" y="-9"/>
      <point x="270" y="-9" type="curve" smooth="yes"/>
      <point x="176" y="-9"/>
      <point x="123" y="-48"/>
      <point x="123" y="-120" type="curve" smooth="yes"/>
    </contour>
  </outline>
</glyph>
<glyph name="loChula-thai.short" format="2">
  <advance width="649"/>
  <anchor x="529" y="0" name="bottom"/>
  <anchor x="552" y="506" name="top"/>
  <outline>
    <contour>
      <point x="115" y="0" type="line"/>
      <point x="203" y="0" type="line"/>
      <point x="279" y="184" type="line" smooth="yes"/>
      <point x="298" y="230"/>
      <point x="311" y="274"/>
      <point x="321" y="315" type="curve"/>
      <point x="325" y="315" type="line"/>
      <point x="335" y="274"/>
      <point x="348" y="230"/>
      <point x="367" y="184" type="curve" smooth="yes"/>
      <point x="443" y="0" type="line"/>
      <point x="530" y="0" type="line"/>
      <point x="593" y="347" type="line" smooth="yes"/>
      <point x="601" y="392"/>
      <point x="591" y="433"/>
      <point x="543" y="447" type="curve"/>
      <point x="543" y="451" type="line"/>
      <point x="609" y="461"/>
      <point x="632" y="502"/>
      <point x="631" y="551" type="curve"/>
      <point x="542" y="551" type="line"/>
      <point x="538" y="514"/>
      <point x="532" y="493"/>
      <point x="482" y="493" type="curve" smooth="yes"/>
      <point x="390" y="493" type="line"/>
      <point x="390" y="430" type="line"/>
      <point x="446" y="430" type="line" smooth="yes"/>
      <point x="509" y="430"/>
      <point x="520" y="397"/>
      <point x="511" y="343" type="curve" smooth="yes"/>
      <point x="502" y="286" type="line" smooth="yes"/>
      <point x="493" y="231"/>
      <point x="484" y="184"/>
      <point x="476" y="101" type="curve"/>
      <point x="471" y="101" type="line"/>
      <point x="448" y="172"/>
      <point x="421" y="237"/>
      <point x="405" y="273" type="curve" smooth="yes"/>
      <point x="355" y="389" type="line"/>
      <point x="287" y="389" type="line"/>
      <point x="241" y="272" type="line" smooth="yes"/>
      <point x="211" y="197"/>
      <point x="193" y="149"/>
      <point x="182" y="110" type="curve"/>
      <point x="178" y="110" type="line"/>
      <point x="174" y="179"/>
      <point x="170" y="226"/>
      <point x="161" y="292" type="curve" smooth="yes"/>
      <point x="131" y="517" type="line"/>
      <point x="41" y="517" type="line"/>
    </contour>
  </outline>
</glyph>
<glyph name="lu-thai.short" format="2">
  <advance width="603"/>
  <anchor x="522" y="-76" name="bottom"/>
  <anchor x="513" y="510" name="top"/>
  <outline>
    <contour>
      <point x="433" y="-126" type="line"/>
      <point x="522" y="-126" type="line"/>
      <point x="522" y="94" type="line"/>
      <point x="433" y="94" type="line"/>
    </contour>
    <component base="phoSamphao-thai"/>
  </outline>
</glyph>
<glyph name="lu_lakkhangyao-thai" format="2">
  <advance width="943"/>
  <outline>
    <contour>
      <point x="433" y="-191" type="line"/>
      <point x="522" y="-191" type="line"/>
      <point x="522" y="333" type="line" smooth="yes"/>
      <point x="522" y="421"/>
      <point x="579" y="453"/>
      <point x="648" y="453" type="curve" smooth="yes"/>
      <point x="717" y="453"/>
      <point x="773" y="423"/>
      <point x="773" y="337" type="curve" smooth="yes"/>
      <point x="773" y="-191" type="line"/>
      <point x="862" y="-191" type="line"/>
      <point x="862" y="347" type="line" smooth="yes"/>
      <point x="862" y="462"/>
      <point x="792" y="527"/>
      <point x="667" y="527" type="curve" smooth="yes"/>
      <point x="577" y="527"/>
      <point x="512" y="495"/>
      <point x="486" y="440" type="curve"/>
      <point x="483" y="440" type="line"/>
      <point x="451" y="495"/>
      <point x="391" y="527"/>
      <point x="295" y="527" type="curve" smooth="yes"/>
      <point x="152" y="527"/>
      <point x="67" y="454"/>
      <point x="67" y="375" type="curve" smooth="yes"/>
      <point x="67" y="344" type="line"/>
      <point x="182" y="305" type="line"/>
      <point x="181" y="302" type="line"/>
      <point x="124" y="289"/>
      <point x="92" y="259"/>
      <point x="92" y="183" type="curve" smooth="yes"/>
      <point x="92" y="97" type="line" smooth="yes"/>
      <point x="92" y="71"/>
      <point x="83" y="60"/>
      <point x="62" y="60" type="curve" smooth="yes"/>
      <point x="51" y="60"/>
      <point x="38" y="63"/>
      <point x="29" y="65" type="curve"/>
      <point x="19" y="5" type="line"/>
      <point x="42" y="-5"/>
      <point x="64" y="-9"/>
      <point x="88" y="-9" type="curve" smooth="yes"/>
      <point x="140" y="-9"/>
      <point x="181" y="12"/>
      <point x="181" y="90" type="curve" smooth="yes"/>
      <point x="181" y="180" type="line" smooth="yes"/>
      <point x="181" y="246"/>
      <point x="214" y="274"/>
      <point x="264" y="274" type="curve"/>
      <point x="272" y="320" type="line"/>
      <point x="158" y="370" type="line"/>
      <point x="158" y="418"/>
      <point x="209" y="453"/>
      <point x="292" y="453" type="curve" smooth="yes"/>
      <point x="370" y="453"/>
      <point x="433" y="420"/>
      <point x="433" y="330" type="curve" smooth="yes"/>
    </contour>
  </outline>
</glyph>
<glyph name="macronbelowcomb.alt" format="2">
  <anchor x="-56" y="0" name="_bottom"/>
  <outline>
    <contour>
      <point x="-120" y="-76" type="line"/>
      <point x="-691" y="-76" type="line"/>
      <point x="-691" y="-147" type="line"/>
      <point x="-120" y="-147" type="line"/>
    </contour>
  </outline>
</glyph>
<glyph name="maiChattawa-thai.narrow" format="2">
  <anchor x="-227" y="506" name="_top"/>
  <anchor x="-304" y="814" name="top"/>
  <outline>
    <contour>
      <point x="-383" y="605" type="line"/>
      <point x="-308" y="605" type="line"/>
      <point x="-308" y="816" type="line"/>
      <point x="-383" y="816" type="line"/>
    </contour>
    <contour>
      <point x="-459" y="677" type="line"/>
      <point x="-231" y="677" type="line"/>
      <point x="-231" y="741" type="line"/>
      <point x="-459" y="741" type="line"/>
    </contour>
  </outline>
</glyph>
<glyph name="maiChattawa-thai.small" format="2">
  <anchor x="-89" y="742" name="_top"/>
  <anchor x="-89" y="980" name="top"/>
  <outline>
    <contour>
      <point x="-168" y="817" type="line"/>
      <point x="-93" y="817" type="line"/>
      <point x="-93" y="980" type="line"/>
      <point x="-168" y="980" type="line"/>
    </contour>
    <contour>
      <point x="-226" y="868" type="line"/>
      <point x="-35" y="868" type="line"/>
      <point x="-35" y="929" type="line"/>
      <point x="-226" y="929" type="line"/>
    </contour>
  </outline>
</glyph>
<glyph name="maiEk-thai.narrow" format="2">
  <anchor x="-228" y="506" name="_top"/>
  <anchor x="-256" y="814" name="top"/>
  <outline>
    <contour>
      <point x="-344" y="605" type="line"/>
      <point x="-256" y="605" type="line"/>
      <point x="-256" y="816" type="line"/>
      <point x="-344" y="816" type="line"/>
    </contour>
  </outline>
</glyph>
<glyph name="maiEk-thai.small" format="2">
  <anchor x="-89" y="742" name="_top"/>
  <anchor x="-89" y="980" name="top"/>
  <outline>
    <contour>
      <point x="-173" y="817" type="line"/>
      <point x="-88" y="817" type="line"/>
      <point x="-88" y="980" type="line"/>
      <point x="-173" y="980" type="line"/>
    </contour>
  </outline>
</glyph>
<glyph name="maiHanaKat-thai.narrow" format="2">
  <anchor x="-226" y="506" name="_top"/>
  <anchor x="-276" y="702" name="top"/>
  <outline>
    <contour>
      <point x="-383" y="605" type="curve" smooth="yes"/>
      <point x="-226" y="605" type="line"/>
      <point x="-226" y="673" type="line"/>
      <point x="-377" y="673" type="line" smooth="yes"/>
      <point x="-402" y="673"/>
      <point x="-412" y="688"/>
      <point x="-412" y="705" type="curve" smooth="yes"/>
      <point x="-412" y="716"/>
      <point x="-410" y="730"/>
      <point x="-407" y="736" type="curve"/>
      <point x="-482" y="749" type="line"/>
      <point x="-491" y="734"/>
      <point x="-497" y="708"/>
      <point x="-497" y="688" type="curve" smooth="yes"/>
      <point x="-497" y="645"/>
      <point x="-466" y="605"/>
    </contour>
  </outline>
</glyph>
<glyph name="maiTho-thai.narrow" format="2">
  <anchor x="-228" y="507" name="_top"/>
  <anchor x="-278" y="815" name="top"/>
  <outline>
    <contour>
      <point x="-494" y="605" type="line"/>
      <point x="-228" y="605" type="line"/>
      <point x="-228" y="675" type="line"/>
      <point x="-388" y="675" type="line"/>
      <point x="-376" y="659" type="line"/>
      <point x="-340" y="673"/>
      <point x="-328" y="701"/>
      <point x="-328" y="730" type="curve" smooth="yes"/>
      <point x="-328" y="778"/>
      <point x="-361" y="810"/>
      <point x="-413" y="810" type="curve" smooth="yes"/>
      <point x="-435" y="810"/>
      <point x="-471" y="805"/>
      <point x="-499" y="784" type="curve"/>
      <point x="-478" y="729" type="line"/>
      <point x="-468" y="733"/>
      <point x="-453" y="740"/>
      <point x="-438" y="740" type="curve" smooth="yes"/>
      <point x="-419" y="740"/>
      <point x="-409" y="728"/>
      <point x="-409" y="710" type="curve" smooth="yes"/>
      <point x="-409" y="675"/>
      <point x="-457" y="657"/>
      <point x="-494" y="649" type="curve"/>
    </contour>
  </outline>
</glyph>
<glyph name="maiTho-thai.small" format="2">
  <anchor x="-89" y="742" name="_top"/>
  <anchor x="-89" y="980" name="top"/>
  <outline>
    <contour>
      <point x="-258" y="817" type="line"/>
      <point x="-6" y="817" type="line"/>
      <point x="-6" y="884" type="line"/>
      <point x="-158" y="884" type="line"/>
      <point x="-152" y="865" type="line"/>
      <point x="-128" y="878"/>
      <point x="-123" y="904"/>
      <point x="-123" y="921" type="curve" smooth="yes"/>
      <point x="-123" y="963"/>
      <point x="-156" y="980"/>
      <point x="-191" y="980" type="curve" smooth="yes"/>
      <point x="-209" y="980"/>
      <point x="-243" y="976"/>
      <point x="-267" y="960" type="curve"/>
      <point x="-249" y="914" type="line"/>
      <point x="-239" y="920"/>
      <point x="-227" y="924"/>
      <point x="-216" y="924" type="curve" smooth="yes"/>
      <point x="-201" y="924"/>
      <point x="-193" y="915"/>
      <point x="-193" y="901" type="curve" smooth="yes"/>
      <point x="-193" y="871"/>
      <point x="-232" y="858"/>
      <point x="-258" y="852" type="curve"/>
    </contour>
  </outline>
</glyph>
<glyph name="maiTri-thai.narrow" format="2">
  <anchor x="-228" y="506" name="_top"/>
  <anchor x="-340" y="815" name="top"/>
  <outline>
    <contour>
      <point x="-455" y="600" type="curve" smooth="yes"/>
      <point x="-435" y="600"/>
      <point x="-417" y="604"/>
      <point x="-407" y="610" type="curve"/>
      <point x="-419" y="657" type="line"/>
      <point x="-429" y="653"/>
      <point x="-441" y="652"/>
      <point x="-447" y="652" type="curve" smooth="yes"/>
      <point x="-478" y="652"/>
      <point x="-492" y="676"/>
      <point x="-492" y="701" type="curve" smooth="yes"/>
      <point x="-492" y="730"/>
      <point x="-473" y="747"/>
      <point x="-454" y="750" type="curve"/>
      <point x="-416" y="720" type="line"/>
      <point x="-410" y="720" type="line"/>
      <point x="-372" y="750" type="line"/>
      <point x="-353" y="748"/>
      <point x="-334" y="732"/>
      <point x="-334" y="700" type="curve" smooth="yes"/>
      <point x="-334" y="670"/>
      <point x="-351" y="655"/>
      <point x="-374" y="647" type="curve"/>
      <point x="-374" y="605" type="line"/>
      <point x="-207" y="605" type="line"/>
      <point x="-207" y="671" type="line"/>
      <point x="-300" y="671" type="line"/>
      <point x="-295" y="652" type="line"/>
      <point x="-277" y="668"/>
      <point x="-267" y="691"/>
      <point x="-267" y="717" type="curve" smooth="yes"/>
      <point x="-267" y="764"/>
      <point x="-297" y="801"/>
      <point x="-367" y="808" type="curve"/>
      <point x="-413" y="772" type="line"/>
      <point x="-459" y="808" type="line"/>
      <point x="-521" y="801"/>
      <point x="-557" y="766"/>
      <point x="-557" y="702" type="curve" smooth="yes"/>
      <point x="-557" y="639"/>
      <point x="-521" y="600"/>
    </contour>
  </outline>
</glyph>
<glyph name="maiTri-thai.small" format="2">
  <anchor x="-89" y="742" name="_top"/>
  <anchor x="-89" y="980" name="top"/>
  <outline>
    <contour>
      <point x="-209" y="813" type="curve" smooth="yes"/>
      <point x="-192" y="813"/>
      <point x="-177" y="817"/>
      <point x="-168" y="822" type="curve"/>
      <point x="-176" y="865" type="line"/>
      <point x="-181" y="863"/>
      <point x="-190" y="862"/>
      <point x="-196" y="862" type="curve" smooth="yes"/>
      <point x="-219" y="862"/>
      <point x="-229" y="876"/>
      <point x="-229" y="895" type="curve" smooth="yes"/>
      <point x="-229" y="914"/>
      <point x="-218" y="927"/>
      <point x="-196" y="929" type="curve"/>
      <point x="-151" y="901" type="line"/>
      <point x="-146" y="901" type="line"/>
      <point x="-103" y="929" type="line"/>
      <point x="-83" y="926"/>
      <point x="-71" y="913"/>
      <point x="-71" y="894" type="curve" smooth="yes"/>
      <point x="-71" y="873"/>
      <point x="-87" y="859"/>
      <point x="-108" y="856" type="curve"/>
      <point x="-108" y="817" type="line"/>
      <point x="44" y="817" type="line"/>
      <point x="44" y="873" type="line"/>
      <point x="-45" y="873" type="line"/>
      <point x="-41" y="860" type="line"/>
      <point x="-24" y="866"/>
      <point x="-11" y="884"/>
      <point x="-11" y="914" type="curve" smooth="yes"/>
      <point x="-11" y="959"/>
      <point x="-57" y="980"/>
      <point x="-102" y="980" type="curve"/>
      <point x="-148" y="946" type="line"/>
      <point x="-199" y="980" type="line"/>
      <point x="-259" y="980"/>
      <point x="-290" y="942"/>
      <point x="-290" y="896" type="curve" smooth="yes"/>
      <point x="-290" y="850"/>
      <point x="-262" y="813"/>
    </contour>
  </outline>
</glyph>
<glyph name="maitaikhu-thai.narrow" format="2">
  <anchor x="-227" y="506" name="_top"/>
  <anchor x="-317" y="794" name="top"/>
  <outline>
    <contour>
      <point x="-317" y="590" type="curve" smooth="yes"/>
      <point x="-263" y="590"/>
      <point x="-227" y="622"/>
      <point x="-227" y="688" type="curve" smooth="yes"/>
      <point x="-227" y="702" type="line"/>
      <point x="-291" y="702" type="line"/>
      <point x="-291" y="690" type="line" smooth="yes"/>
      <point x="-291" y="666"/>
      <point x="-306" y="649"/>
      <point x="-329" y="649" type="curve" smooth="yes"/>
      <point x="-354" y="649"/>
      <point x="-369" y="667"/>
      <point x="-370" y="702" type="curve"/>
      <point x="-395" y="702" type="line"/>
      <point x="-435" y="652" type="line"/>
      <point x="-470" y="652"/>
      <point x="-483" y="673"/>
      <point x="-483" y="701" type="curve" smooth="yes"/>
      <point x="-483" y="739"/>
      <point x="-460" y="756"/>
      <point x="-429" y="756" type="curve" smooth="yes"/>
      <point x="-228" y="756" type="line"/>
      <point x="-228" y="816" type="line"/>
      <point x="-442" y="816" type="line" smooth="yes"/>
      <point x="-501" y="816"/>
      <point x="-553" y="780"/>
      <point x="-553" y="704" type="curve" smooth="yes"/>
      <point x="-553" y="632"/>
      <point x="-506" y="593"/>
      <point x="-429" y="593" type="curve"/>
      <point x="-395" y="636" type="line"/>
      <point x="-379" y="605"/>
      <point x="-353" y="590"/>
    </contour>
  </outline>
</glyph>
<glyph name="phinthu-thai.small" format="2">
  <anchor x="-81" y="-76" name="_bottom"/>
  <anchor x="-81" y="-203" name="bottom"/>
  <outline>
    <contour>
      <point x="-131" y="-255" type="curve" smooth="yes"/>
      <point x="-90" y="-255"/>
      <point x="-63" y="-236"/>
      <point x="-63" y="-200" type="curve" smooth="yes"/>
      <point x="-63" y="-163"/>
      <point x="-90" y="-145"/>
      <point x="-131" y="-145" type="curve" smooth="yes"/>
      <point x="-172" y="-145"/>
      <point x="-199" y="-163"/>
      <point x="-199" y="-200" type="curve" smooth="yes"/>
      <point x="-199" y="-236"/>
      <point x="-172" y="-255"/>
    </contour>
  </outline>
</glyph>
<glyph name="ru-thai.short" format="2">
  <advance width="602"/>
  <anchor x="521" y="-76" name="bottom"/>
  <anchor x="513" y="506" name="top"/>
  <outline>
    <contour>
      <point x="432" y="-126" type="line"/>
      <point x="521" y="-126" type="line"/>
      <point x="521" y="94" type="line"/>
      <point x="432" y="94" type="line"/>
    </contour>
    <component base="thoThung-thai"/>
  </outline>
</glyph>
<glyph name="ru_lakkhangyao-thai" format="2">
  <advance width="942"/>
  <outline>
    <contour>
      <point x="432" y="-191" type="line"/>
      <point x="521" y="-191" type="line"/>
      <point x="521" y="333" type="line" smooth="yes"/>
      <point x="521" y="421"/>
      <point x="578" y="453"/>
      <point x="648" y="453" type="curve" smooth="yes"/>
      <point x="717" y="453"/>
      <point x="772" y="423"/>
      <point x="772" y="337" type="curve" smooth="yes"/>
      <point x="772" y="-191" type="line"/>
      <point x="861" y="-191" type="line"/>
      <point x="861" y="347" type="line" smooth="yes"/>
      <point x="861" y="462"/>
      <point x="791" y="527"/>
      <point x="666" y="527" type="curve" smooth="yes"/>
      <point x="577" y="527"/>
      <point x="511" y="495"/>
      <point x="485" y="440" type="curve"/>
      <point x="482" y="440" type="line"/>
      <point x="451" y="495"/>
      <point x="391" y="527"/>
      <point x="294" y="527" type="curve" smooth="yes"/>
      <point x="149" y="527"/>
      <point x="66" y="454"/>
      <point x="66" y="375" type="curve" smooth="yes"/>
      <point x="66" y="344" type="line"/>
      <point x="181" y="305" type="line"/>
      <point x="180" y="302" type="line"/>
      <point x="123" y="288"/>
      <point x="84" y="258"/>
      <point x="84" y="180" type="curve" smooth="yes"/>
      <point x="84" y="92" type="line" smooth="yes"/>
      <point x="84" y="14"/>
      <point x="137" y="-9"/>
      <point x="194" y="-9" type="curve" smooth="yes"/>
      <point x="216" y="-9"/>
      <point x="240" y="-6"/>
      <point x="265" y="5" type="curve"/>
      <point x="252" y="68" type="line"/>
      <point x="241" y="64"/>
      <point x="228" y="62"/>
      <point x="214" y="62" type="curve" smooth="yes"/>
      <point x="186" y="62"/>
      <point x="173" y="73"/>
      <point x="173" y="101" type="curve" smooth="yes"/>
      <point x="173" y="182" type="line" smooth="yes"/>
      <point x="173" y="248"/>
      <point x="213" y="274"/>
      <point x="263" y="274" type="curve"/>
      <point x="271" y="320" type="line"/>
      <point x="157" y="370" type="line"/>
      <point x="157" y="418"/>
      <point x="208" y="453"/>
      <point x="291" y="453" type="curve" smooth="yes"/>
      <point x="370" y="453"/>
      <point x="432" y="420"/>
      <point x="432" y="330" type="curve" smooth="yes"/>
    </contour>
  </outline>
</glyph>
<glyph name="saraI-thai.narrow" format="2">
  <anchor x="-227" y="506" name="_top"/>
  <anchor x="-227" y="683" name="top"/>
  <outline>
    <contour>
      <point x="-574" y="605" type="line"/>
      <point x="-228" y="605" type="line"/>
      <point x="-228" y="676" type="line"/>
      <point x="-502" y="676" type="line"/>
      <point x="-574" y="644" type="line"/>
    </contour>
  </outline>
</glyph>
<glyph name="saraIi-thai.narrow" format="2">
  <anchor x="-227" y="506" name="_top"/>
  <anchor x="-227" y="742" name="top"/>
  <outline>
    <contour>
      <point x="-574" y="605" type="line"/>
      <point x="-228" y="605" type="line"/>
      <point x="-228" y="675" type="line"/>
      <point x="-502" y="675" type="line"/>
      <point x="-574" y="644" type="line"/>
    </contour>
    <contour>
      <point x="-311" y="644" type="line"/>
      <point x="-228" y="644" type="line"/>
      <point x="-228" y="754" type="line"/>
      <point x="-311" y="754" type="line"/>
    </contour>
  </outline>
</glyph>
<glyph name="saraU-thai.small" format="2">
  <anchor x="-81" y="-76" name="_bottom"/>
  <anchor x="-81" y="-211" name="bottom"/>
  <outline>
    <contour>
      <point x="-160" y="-261" type="line"/>
      <point x="-81" y="-261" type="line"/>
      <point x="-81" y="-206" type="line" smooth="yes"/>
      <point x="-81" y="-168"/>
      <point x="-103" y="-144"/>
      <point x="-149" y="-144" type="curve" smooth="yes"/>
      <point x="-164" y="-144"/>
      <point x="-190" y="-147"/>
      <point x="-210" y="-154" type="curve"/>
      <point x="-203" y="-214" type="line"/>
      <point x="-196" y="-212"/>
      <point x="-189" y="-210"/>
      <point x="-182" y="-210" type="curve" smooth="yes"/>
      <point x="-167" y="-210"/>
      <point x="-160" y="-218"/>
      <point x="-160" y="-235" type="curve" smooth="yes"/>
    </contour>
  </outline>
</glyph>
<glyph name="saraUe-thai.narrow" format="2">
  <anchor x="-227" y="506" name="_top"/>
  <anchor x="-227" y="742" name="top"/>
  <outline>
    <contour>
      <point x="-574" y="605" type="line"/>
      <point x="-289" y="605" type="line" smooth="yes"/>
      <point x="-231" y="605"/>
      <point x="-199" y="640"/>
      <point x="-199" y="688" type="curve" smooth="yes"/>
      <point x="-199" y="738"/>
      <point x="-235" y="774"/>
      <point x="-294" y="774" type="curve" smooth="yes"/>
      <point x="-352" y="774"/>
      <point x="-388" y="740"/>
      <point x="-388" y="688" type="curve" smooth="yes"/>
      <point x="-388" y="679"/>
      <point x="-387" y="666"/>
      <point x="-380" y="651" type="curve"/>
      <point x="-367" y="675" type="line"/>
      <point x="-502" y="675" type="line"/>
      <point x="-574" y="644" type="line"/>
    </contour>
    <contour>
      <point x="-293" y="648" type="curve" smooth="yes"/>
      <point x="-323" y="648"/>
      <point x="-337" y="666"/>
      <point x="-337" y="689" type="curve" smooth="yes"/>
      <point x="-337" y="714"/>
      <point x="-322" y="730"/>
      <point x="-294" y="730" type="curve" smooth="yes"/>
      <point x="-267" y="730"/>
      <point x="-251" y="714"/>
      <point x="-251" y="689" type="curve" smooth="yes"/>
      <point x="-251" y="665"/>
      <point x="-266" y="648"/>
    </contour>
  </outline>
</glyph>
<glyph name="saraUee-thai.narrow" format="2">
  <anchor x="-226" y="506" name="_top"/>
  <anchor x="-287" y="742" name="top"/>
  <outline>
    <contour>
      <point x="-574" y="605" type="line"/>
      <point x="-226" y="605" type="line"/>
      <point x="-226" y="675" type="line"/>
      <point x="-502" y="675" type="line"/>
      <point x="-574" y="644" type="line"/>
    </contour>
    <contour>
      <point x="-432" y="659" type="line"/>
      <point x="-360" y="659" type="line"/>
      <point x="-360" y="754" type="line"/>
      <point x="-432" y="754" type="line"/>
    </contour>
    <contour>
      <point x="-299" y="659" type="line"/>
      <point x="-227" y="659" type="line"/>
      <point x="-227" y="754" type="line"/>
      <point x="-299" y="754" type="line"/>
    </contour>
  </outline>
</glyph>
<glyph name="saraUu-thai.small" format="2">
  <anchor x="-80" y="-76" name="_bottom"/>
  <anchor x="-80" y="-211" name="bottom"/>
  <outline>
    <contour>
      <point x="-217" y="-265" type="curve" smooth="yes"/>
      <point x="-120" y="-265"/>
      <point x="-80" y="-241"/>
      <point x="-80" y="-187" type="curve" smooth="yes"/>
      <point x="-80" y="-145" type="line"/>
      <point x="-158" y="-145" type="line"/>
      <point x="-158" y="-182" type="line" smooth="yes"/>
      <point x="-158" y="-205"/>
      <point x="-172" y="-217"/>
      <point x="-214" y="-217" type="curve" smooth="yes"/>
      <point x="-251" y="-217"/>
      <point x="-264" y="-208"/>
      <point x="-264" y="-187" type="curve" smooth="yes"/>
      <point x="-264" y="-183" type="line" smooth="yes"/>
      <point x="-264" y="-157"/>
      <point x="-284" y="-142"/>
      <point x="-328" y="-142" type="curve" smooth="yes"/>
      <point x="-339" y="-142"/>
      <point x="-353" y="-143"/>
      <point x="-368" y="-146" type="curve"/>
      <point x="-363" y="-195" type="line"/>
      <point x="-348" y="-192"/>
      <point x="-341" y="-197"/>
      <point x="-341" y="-206" type="curve" smooth="yes"/>
      <point x="-341" y="-212" type="line" smooth="yes"/>
      <point x="-341" y="-240"/>
      <point x="-315" y="-265"/>
    </contour>
  </outline>
</glyph>
<glyph name="thanthakhat-thai.narrow" format="2">
  <anchor x="-285" y="506" name="_top"/>
  <anchor x="-304" y="687" name="top"/>
  <outline>
    <contour>
      <point x="-450" y="576" type="curve"/>
      <point x="-374" y="588" type="line"/>
      <point x="-379" y="598"/>
      <point x="-382" y="609"/>
      <point x="-382" y="619" type="curve" smooth="yes"/>
      <point x="-382" y="643"/>
      <point x="-366" y="652"/>
      <point x="-338" y="652" type="curve" smooth="yes"/>
      <point x="-226" y="652" type="line"/>
      <point x="-226" y="721" type="line"/>
      <point x="-361" y="721" type="line" smooth="yes"/>
      <point x="-443" y="721"/>
      <point x="-466" y="681"/>
      <point x="-466" y="639" type="curve" smooth="yes"/>
      <point x="-466" y="616"/>
      <point x="-459" y="590"/>
    </contour>
  </outline>
</glyph>
<glyph name="thanthakhat-thai.small" format="2">
  <anchor x="-89" y="742" name="_top"/>
  <anchor x="-89" y="980" name="top"/>
  <outline>
    <contour>
      <point x="-223" y="787" type="curve"/>
      <point x="-147" y="800" type="line"/>
      <point x="-152" y="810"/>
      <point x="-155" y="822"/>
      <point x="-155" y="832" type="curve" smooth="yes"/>
      <point x="-155" y="856"/>
      <point x="-139" y="865"/>
      <point x="-110" y="865" type="curve" smooth="yes"/>
      <point x="-7" y="865" type="line"/>
      <point x="-7" y="933" type="line"/>
      <point x="-132" y="933" type="line" smooth="yes"/>
      <point x="-217" y="933"/>
      <point x="-239" y="893"/>
      <point x="-239" y="850" type="curve" smooth="yes"/>
      <point x="-239" y="828"/>
      <point x="-233" y="802"/>
    </contour>
  </outline>
</glyph>
<glyph name="thoThan-thai.less" format="2">
  <advance width="547"/>
  <anchor x="427" y="0" name="bottom"/>
  <anchor x="479" y="506" name="top"/>
  <outline>
    <contour>
      <point x="143" y="0" type="line"/>
      <point x="227" y="0" type="line" smooth="yes"/>
      <point x="403" y="0"/>
      <point x="467" y="94"/>
      <point x="467" y="259" type="curve" smooth="yes"/>
      <point x="467" y="355"/>
      <point x="446" y="425"/>
      <point x="389" y="463" type="curve"/>
      <point x="358" y="507"/>
      <point x="300" y="527"/>
      <point x="219" y="527" type="curve" smooth="yes"/>
      <point x="143" y="527"/>
      <point x="74" y="510"/>
      <point x="34" y="487" type="curve"/>
      <point x="34" y="405" type="line"/>
      <point x="87" y="438"/>
      <point x="145" y="453"/>
      <point x="208" y="453" type="curve" smooth="yes"/>
      <point x="331" y="453"/>
      <point x="376" y="398"/>
      <point x="376" y="260" type="curve" smooth="yes"/>
      <point x="376" y="124"/>
      <point x="331" y="71"/>
      <point x="241" y="71" type="curve" smooth="yes"/>
      <point x="228" y="71" type="line"/>
      <point x="228" y="297" type="line"/>
      <point x="67" y="297" type="line"/>
      <point x="67" y="229" type="line"/>
      <point x="143" y="229" type="line"/>
    </contour>
    <contour>
      <point x="401" y="442" type="line"/>
      <point x="461" y="454"/>
      <point x="510" y="492"/>
      <point x="510" y="551" type="curve"/>
      <point x="423" y="551" type="line"/>
      <point x="423" y="514"/>
      <point x="385" y="494"/>
      <point x="351" y="488" type="curve"/>
    </contour>
  </outline>
</glyph>
<glyph name="toPatak-thai.short" format="2">
  <advance width="603"/>
  <anchor x="522" y="-76" name="bottom"/>
  <anchor x="510" y="506" name="top"/>
  <outline>
    <contour>
      <point x="76" y="-126" type="line"/>
      <point x="160" y="-126" type="line"/>
      <point x="160" y="-123" type="line" smooth="yes"/>
      <point x="160" y="-100"/>
      <point x="175" y="-80"/>
      <point x="209" y="-80" type="curve" smooth="yes"/>
      <point x="242" y="-80"/>
      <point x="266" y="-96"/>
      <point x="281" y="-126" type="curve"/>
      <point x="316" y="-126" type="line"/>
      <point x="368" y="-85" type="line"/>
      <point x="442" y="-126" type="line"/>
      <point x="522" y="-126" type="line"/>
      <point x="522" y="347" type="line" smooth="yes"/>
      <point x="522" y="473"/>
      <point x="416" y="527"/>
      <point x="293" y="527" type="curve" smooth="yes"/>
      <point x="150" y="527"/>
      <point x="67" y="454"/>
      <point x="67" y="375" type="curve" smooth="yes"/>
      <point x="67" y="345" type="line"/>
      <point x="182" y="305" type="line"/>
      <point x="181" y="302" type="line"/>
      <point x="124" y="289"/>
      <point x="92" y="259"/>
      <point x="92" y="183" type="curve" smooth="yes"/>
      <point x="92" y="98" type="line" smooth="yes"/>
      <point x="92" y="73"/>
      <point x="83" y="61"/>
      <point x="62" y="61" type="curve" smooth="yes"/>
      <point x="51" y="61"/>
      <point x="38" y="64"/>
      <point x="29" y="67" type="curve"/>
      <point x="19" y="6" type="line"/>
      <point x="42" y="-4"/>
      <point x="64" y="-8"/>
      <point x="87" y="-8" type="curve" smooth="yes"/>
      <point x="140" y="-8"/>
      <point x="181" y="13"/>
      <point x="181" y="90" type="curve" smooth="yes"/>
      <point x="181" y="180" type="line" smooth="yes"/>
      <point x="181" y="246"/>
      <point x="214" y="274"/>
      <point x="264" y="274" type="curve"/>
      <point x="272" y="320" type="line"/>
      <point x="158" y="370" type="line"/>
      <point x="158" y="418"/>
      <point x="209" y="453"/>
      <point x="291" y="453" type="curve" smooth="yes"/>
      <point x="370" y="453"/>
      <point x="433" y="420"/>
      <point x="433" y="338" type="curve" smooth="yes"/>
      <point x="433" y="-85" type="line"/>
      <point x="459" y="-75" type="line"/>
      <point x="366" y="-21" type="line"/>
      <point x="302" y="-70" type="line"/>
      <point x="288" y="-46"/>
      <point x="250" y="-16"/>
      <point x="191" y="-16" type="curve" smooth="yes"/>
      <point x="131" y="-16"/>
      <point x="76" y="-46"/>
      <point x="76" y="-118" type="curve" smooth="yes"/>
    </contour>
  </outline>
</glyph>
<glyph name="yoYing-thai.less" format="2">
  <advance width="891"/>
  <anchor x="792" y="0" name="bottom"/>
  <anchor x="810" y="506" name="top"/>
  <outline>
    <contour>
      <point x="607" y="-10" type="curve" smooth="yes"/>
      <point x="747" y="-10"/>
      <point x="810" y="51"/>
      <point x="810" y="181" type="curve" smooth="yes"/>
      <point x="810" y="517" type="line"/>
      <point x="721" y="517" type="line"/>
      <point x="721" y="179" type="line" smooth="yes"/>
      <point x="721" y="96"/>
      <point x="679" y="64"/>
      <point x="607" y="64" type="curve" smooth="yes"/>
      <point x="534" y="64"/>
      <point x="492" y="96"/>
      <point x="492" y="179" type="curve" smooth="yes"/>
      <point x="492" y="349" type="line" smooth="yes"/>
      <point x="492" y="479"/>
      <point x="388" y="527"/>
      <point x="279" y="527" type="curve" smooth="yes"/>
      <point x="148" y="527"/>
      <point x="66" y="459"/>
      <point x="66" y="375" type="curve" smooth="yes"/>
      <point x="66" y="345" type="line"/>
      <point x="181" y="305" type="line"/>
      <point x="180" y="302" type="line"/>
      <point x="123" y="288"/>
      <point x="84" y="258"/>
      <point x="84" y="180" type="curve" smooth="yes"/>
      <point x="84" y="92" type="line" smooth="yes"/>
      <point x="84" y="14"/>
      <point x="137" y="-9"/>
      <point x="194" y="-9" type="curve" smooth="yes"/>
      <point x="216" y="-9"/>
      <point x="240" y="-6"/>
      <point x="265" y="5" type="curve"/>
      <point x="252" y="68" type="line"/>
      <point x="241" y="64"/>
      <point x="228" y="62"/>
      <point x="215" y="62" type="curve" smooth="yes"/>
      <point x="186" y="62"/>
      <point x="173" y="73"/>
      <point x="173" y="102" type="curve" smooth="yes"/>
      <point x="173" y="182" type="line" smooth="yes"/>
      <point x="173" y="248"/>
      <point x="213" y="274"/>
      <point x="263" y="274" type="curve"/>
      <point x="271" y="320" type="line"/>
      <point x="157" y="370" type="line"/>
      <point x="158" y="425"/>
      <point x="207" y="454"/>
      <point x="278" y="454" type="curve" smooth="yes"/>
      <point x="344" y="454"/>
      <point x="404" y="428"/>
      <point x="404" y="340" type="curve" smooth="yes"/>
      <point x="404" y="181" type="line" smooth="yes"/>
      <point x="404" y="51"/>
      <point x="467" y="-10"/>
    </contour>
  </outline>
</glyph>
